<?xml version="1.0" encoding="UTF-8" standalone="no"?>
<!-- Creator: CorelDRAW 2021 (64 Bit) -->

<svg
   xml:space="preserve"
   width="58.5522mm"
   height="49.947689mm"
   version="1.1"
   style="clip-rule:evenodd;fill-rule:evenodd;image-rendering:optimizeQuality;shape-rendering:geometricPrecision;text-rendering:geometricPrecision"
   viewBox="0 0 5855.22 4994.7689"
   id="svg14"
   sodipodi:docname="enciropedia-logo-icon-branca.svg"
   inkscape:version="1.1 (c68e22c387, 2021-05-23)"
   xmlns:inkscape="http://www.inkscape.org/namespaces/inkscape"
   xmlns:sodipodi="http://sodipodi.sourceforge.net/DTD/sodipodi-0.dtd"
   xmlns="http://www.w3.org/2000/svg"
   xmlns:svg="http://www.w3.org/2000/svg"><sodipodi:namedview
   id="namedview16"
   pagecolor="#ffffff"
   bordercolor="#666666"
   borderopacity="1.0"
   inkscape:pageshadow="2"
   inkscape:pageopacity="0.0"
   inkscape:pagecheckerboard="0"
   inkscape:document-units="mm"
   showgrid="false"
   inkscape:zoom="1.0810119"
   inkscape:cx="135.9837"
   inkscape:cy="96.668686"
   inkscape:window-width="1920"
   inkscape:window-height="1017"
   inkscape:window-x="2552"
   inkscape:window-y="9"
   inkscape:window-maximized="1"
   inkscape:current-layer="Camada_x0020_1" />
 <defs
   id="defs4">
  <style
   type="text/css"
   id="style2">
   <![CDATA[
    .str0 {stroke:black;stroke-width:7.62;stroke-miterlimit:22.9256}
    .fil1 {fill:white;fill-rule:nonzero}
    .fil0 {fill:white;fill-rule:nonzero}
   ]]>
  </style>
 </defs>
 <g
   id="Camada_x0020_1"
   inkscape:label="Camada 1"
   inkscape:groupmode="layer"
   transform="translate(-2752,-8009.7413)">
  <metadata
   id="CorelCorpID_0Corel-Layer" />
  
  <g
   id="g915"><path
     class="fil0 str0"
     d="m 6472.59,8348.19 c 109.76,115.57 196.46,248.06 260.28,409.06 87.52,220.75 131.04,493.03 131.04,847.17 0,126.95 0.04,239.94 7.78,348.44 7.76,108.87 23.15,216.33 53.72,334.53 37.99,146.92 100.19,246.66 172.53,353.82 11.42,-50.26 23.84,-111.3 35.35,-180.59 85.29,-513.16 128.89,-1503.4 -606.77,-2083.15 l -3.08,-2.81 c -12,-10.62 -30.03,-19.41 -50.85,-26.47 z m -2266.17,2170.55 c 19.74,-94.22 49.32,-181.66 77.32,-264.42 47.87,-141.47 90.52,-267.52 59.35,-374.89 -69.1,-237.93 -53.12,-486.05 29.39,-712.4 84.74,-232.53 239.85,-442.47 444.97,-594.87 158.81,-118 188.05,-68.21 248.46,34.74 37.92,64.61 102.58,174.73 415.6,185.11 263.76,8.75 469.49,-100.8 565.2,-235.16 32.43,-45.52 51.31,-93.01 54.11,-138.04 2.58,-41.55 -8.87,-82.05 -36.55,-117.62 -71.87,-92.35 -245.03,-156.03 -551.47,-143.06 -208.42,8.82 -395.09,59.83 -563.7,146.95 -169.28,87.48 -321.18,211.98 -459.28,367.31 l -0.13,-0.11 c -201.2,241.9 -374.9,523.58 -447.66,819.43 -58.14,236.35 -51.5,482.51 58.37,725.12 8.17,15.93 33.35,83.55 57.39,151.03 19.85,55.73 39.07,114.91 48.63,150.88 z m 212.91,-218.47 c -53.46,157.95 -113.22,334.66 -85.36,535.68 l 0.88,-0.14 c 0,0 45.51,570.45 49.13,612.91 11.52,133.65 22.91,265.45 33.57,404.63 l 0.28,5.33 c 0,195.65 158.78,413.17 377.43,596.17 249.93,209.17 574.3,369.24 833.97,402.42 h 39.78 v 0.24 c 17.12,-0.41 32.26,-0.41 49.38,0 v -0.24 h 39.8 c 259.66,-33.18 584.02,-193.25 833.95,-402.42 218.65,-183 377.43,-400.52 377.43,-596.17 l 0.29,-5.33 c 10.66,-139.18 22.04,-270.98 33.57,-404.63 17.7,-205.19 35.78,-414.63 49.35,-618.94 -18.38,-27.98 -35,-52.42 -51.16,-76.18 -89.12,-131.14 -166.71,-245.26 -214.58,-430.35 -33.29,-128.71 -49.94,-244.22 -58.21,-360.3 -8.3,-116.44 -8.36,-230.47 -8.36,-358.53 0,-336.45 -39.98,-591.69 -120.38,-794.5 -79.01,-199.32 -198.14,-350.03 -357.74,-479.87 -3.52,-2.85 -6.75,-5.83 -9.68,-8.89 9.73,34.36 13.26,69.97 11.02,106.04 -4.51,72.29 -32.56,145.34 -80.44,212.57 -119.83,168.2 -370.52,305.58 -686.21,295.11 -391.9,-13 -481.69,-165.96 -534.37,-255.72 -6.03,-10.27 -8.98,-15.25 -40.07,7.85 -182.43,135.55 -320.36,322.17 -395.65,528.77 -72.56,199.06 -86.86,416.4 -26.61,623.87 43.81,150.85 -5.59,296.8 -61.01,460.62 z m -225.71,565.92 c -2.97,-17.17 -152.58,-399.43 -170.85,-450.71 -22.47,-63.07 -44.86,-124.08 -49.66,-133.33 l -1.4,-3.09 c -8.13,-17.77 -15.75,-35.58 -22.89,-53.4 -146.85,187.5 -41.68,563.74 71.25,967.46 19.18,68.61 38.61,138.03 53.03,191.88 9.06,33.79 32.77,58.58 62.91,75.92 29.73,17.1 71.46,28.85 108.03,34.07 l -2.93,-33.96 c -16.77,-194.39 -33.88,-392.67 -47.49,-594.84 z m -295.46,-796.32 c -51.89,-206.78 -44.12,-412.95 4.93,-612.33 78.69,-319.92 264.16,-621.32 478.32,-878.42 l 1.41,-1.96 c 149.26,-167.9 314.77,-303.15 500.72,-399.25 186.64,-96.43 393.15,-152.9 623.65,-162.64 359.39,-15.22 572.5,72.34 670.25,197.96 12.99,16.68 23.98,33.99 33.1,51.77 0.08,-2.2 0.25,-4.42 0.5,-6.66 v -0.28 c 4.53,-38.75 30.2,-61.96 71.39,-70.71 h 0.29 c 13.71,-2.89 31.73,-4.32 52.24,-4.19 78.49,0.45 214.07,26.37 280.01,81.78 l 0.07,-0.09 c 595.19,469.05 719.31,1176.8 706.1,1730.57 l 11.92,4.56 c 441.03,168.84 298.84,677.22 143.89,1231.2 -16.24,58.05 -32.68,116.85 -52.49,190.79 -20.03,74.76 -68.85,127.51 -130.13,162.77 -46.18,26.56 -109.82,44.87 -163.19,52.91 -6.55,77.31 -12.74,152.36 -18.16,222.93 -0.94,241.63 -181.1,496.65 -428.95,704.08 -270.89,226.72 -626.43,400.34 -912.86,435.47 l -4.64,0.57 h -48.14 l -1.67,-0.28 -23.02,-0.56 -23.01,0.56 -1.68,0.28 h -48.12 l -4.64,-0.57 c -286.44,-35.13 -641.99,-208.75 -912.87,-435.47 -247.86,-207.43 -428.02,-462.45 -428.96,-704.08 -5.35,-69.72 -11.46,-143.79 -17.92,-220.1 -62.63,-5.23 -135.43,-23.41 -191.64,-55.74 -61.28,-35.26 -110.11,-88.01 -130.13,-162.77 -19.89,-74.22 -36.26,-132.75 -52.49,-190.75 -137.44,-491.36 -264.78,-946.84 15.92,-1161.35 z m 3299.57,736.06 c -14.17,223.06 -33.01,441.43 -51.44,655.1 l -2.46,28.53 c 24.01,-5.86 47.09,-14.42 67.35,-26.07 30.13,-17.34 65.85,-44.7 74.91,-78.49 14.51,-54.18 33.86,-123.35 53.04,-191.92 131.88,-471.47 253.19,-905.48 -25.18,-1045.1 -8.64,124.55 -23.3,238.25 -39.48,335.61 -17.8,107.13 -37.12,193.67 -52.17,253.4 -6.54,25.94 -15.27,49.12 -24.57,68.94 z"
     id="path7" /><path
     class="fil1 str0"
     d="M 2755.81,12556.45 V 8457.8 h 949.58 v 263.06 h -105.78 c -104.16,0 -173.67,10.39 -208.33,31.49 -35.59,21.68 -61.99,53.39 -79.94,94.47 -18.37,42.06 -27.45,142.13 -27.45,300.37 v 2719.86 c 0,151.79 3.89,238.04 9.69,260.81 14.37,56.35 40.25,98.7 78.32,125.16 38.62,26.83 114.66,40.37 227.71,40.37 h 105.78 v 263.06 z M 8603.41,8457.8 v 4098.65 h -949.57 v -263.06 h 105.78 c 104.16,0 173.5,-10.67 208.32,-30.68 35.42,-20.36 61.69,-51.08 79.94,-93.67 18.07,-42.19 27.45,-141.3 27.45,-297.14 V 9142.35 c 0,-150.19 -3.91,-235.59 -9.69,-257.58 -14.39,-54.73 -40.24,-95.47 -78.32,-122.73 -38.62,-27.64 -114.67,-41.18 -227.7,-41.18 H 7653.84 V 8457.8 Z"
     id="path9" /></g>
  
 </g>
</svg>
