<?xml version="1.0" encoding="UTF-8"?>
<!DOCTYPE svg PUBLIC "-//W3C//DTD SVG 1.1//EN" "http://www.w3.org/Graphics/SVG/1.1/DTD/svg11.dtd">
<!-- Creator: CorelDRAW 2021 (64 Bit) -->
<svg xmlns="http://www.w3.org/2000/svg" xml:space="preserve" width="297mm" height="210mm" version="1.1" style="shape-rendering:geometricPrecision; text-rendering:geometricPrecision; image-rendering:optimizeQuality; fill-rule:evenodd; clip-rule:evenodd"
viewBox="0 0 29700 21000"
 xmlns:xlink="http://www.w3.org/1999/xlink"
 xmlns:xodm="http://www.corel.com/coreldraw/odm/2003">
 <defs>
  <style type="text/css">
   <![CDATA[
    .str0 {stroke:black;stroke-width:7.62;stroke-miterlimit:22.9256}
    .fil1 {fill:white;fill-rule:nonzero}
    .fil0 {fill:white;fill-rule:nonzero}
   ]]>
  </style>
 </defs>
 <g id="Camada_x0020_1">
  <metadata id="CorelCorpID_0Corel-Layer"/>
  <path class="fil0 str0" d="M6472.59 8348.19c109.76,115.57 196.46,248.06 260.28,409.06 87.52,220.75 131.04,493.03 131.04,847.17 0,126.95 0.04,239.94 7.78,348.44 7.76,108.87 23.15,216.33 53.72,334.53 37.99,146.92 100.19,246.66 172.53,353.82 11.42,-50.26 23.84,-111.3 35.35,-180.59 85.29,-513.16 128.89,-1503.4 -606.77,-2083.15l-3.08 -2.81c-12,-10.62 -30.03,-19.41 -50.85,-26.47zm-2266.17 2170.55c19.74,-94.22 49.32,-181.66 77.32,-264.42 47.87,-141.47 90.52,-267.52 59.35,-374.89 -69.1,-237.93 -53.12,-486.05 29.39,-712.4 84.74,-232.53 239.85,-442.47 444.97,-594.87 158.81,-118 188.05,-68.21 248.46,34.74 37.92,64.61 102.58,174.73 415.6,185.11 263.76,8.75 469.49,-100.8 565.2,-235.16 32.43,-45.52 51.31,-93.01 54.11,-138.04 2.58,-41.55 -8.87,-82.05 -36.55,-117.62 -71.87,-92.35 -245.03,-156.03 -551.47,-143.06 -208.42,8.82 -395.09,59.83 -563.7,146.95 -169.28,87.48 -321.18,211.98 -459.28,367.31l-0.13 -0.11c-201.2,241.9 -374.9,523.58 -447.66,819.43 -58.14,236.35 -51.5,482.51 58.37,725.12 8.17,15.93 33.35,83.55 57.39,151.03 19.85,55.73 39.07,114.91 48.63,150.88zm212.91 -218.47c-53.46,157.95 -113.22,334.66 -85.36,535.68l0.88 -0.14c0,0 45.51,570.45 49.13,612.91 11.52,133.65 22.91,265.45 33.57,404.63l0.28 5.33c0,195.65 158.78,413.17 377.43,596.17 249.93,209.17 574.3,369.24 833.97,402.42l39.78 0 0 0.24c17.12,-0.41 32.26,-0.41 49.38,0l0 -0.24 39.8 0c259.66,-33.18 584.02,-193.25 833.95,-402.42 218.65,-183 377.43,-400.52 377.43,-596.17l0.29 -5.33c10.66,-139.18 22.04,-270.98 33.57,-404.63 17.7,-205.19 35.78,-414.63 49.35,-618.94 -18.38,-27.98 -35,-52.42 -51.16,-76.18 -89.12,-131.14 -166.71,-245.26 -214.58,-430.35 -33.29,-128.71 -49.94,-244.22 -58.21,-360.3 -8.3,-116.44 -8.36,-230.47 -8.36,-358.53 0,-336.45 -39.98,-591.69 -120.38,-794.5 -79.01,-199.32 -198.14,-350.03 -357.74,-479.87 -3.52,-2.85 -6.75,-5.83 -9.68,-8.89 9.73,34.36 13.26,69.97 11.02,106.04 -4.51,72.29 -32.56,145.34 -80.44,212.57 -119.83,168.2 -370.52,305.58 -686.21,295.11 -391.9,-13 -481.69,-165.96 -534.37,-255.72 -6.03,-10.27 -8.98,-15.25 -40.07,7.85 -182.43,135.55 -320.36,322.17 -395.65,528.77 -72.56,199.06 -86.86,416.4 -26.61,623.87 43.81,150.85 -5.59,296.8 -61.01,460.62zm-225.71 565.92c-2.97,-17.17 -152.58,-399.43 -170.85,-450.71 -22.47,-63.07 -44.86,-124.08 -49.66,-133.33l-1.4 -3.09c-8.13,-17.77 -15.75,-35.58 -22.89,-53.4 -146.85,187.5 -41.68,563.74 71.25,967.46 19.18,68.61 38.61,138.03 53.03,191.88 9.06,33.79 32.77,58.58 62.91,75.92 29.73,17.1 71.46,28.85 108.03,34.07l-2.93 -33.96c-16.77,-194.39 -33.88,-392.67 -47.49,-594.84zm-295.46 -796.32c-51.89,-206.78 -44.12,-412.95 4.93,-612.33 78.69,-319.92 264.16,-621.32 478.32,-878.42l1.41 -1.96c149.26,-167.9 314.77,-303.15 500.72,-399.25 186.64,-96.43 393.15,-152.9 623.65,-162.64 359.39,-15.22 572.5,72.34 670.25,197.96 12.99,16.68 23.98,33.99 33.1,51.77 0.08,-2.2 0.25,-4.42 0.5,-6.66l0 -0.28c4.53,-38.75 30.2,-61.96 71.39,-70.71l0.29 0c13.71,-2.89 31.73,-4.32 52.24,-4.19 78.49,0.45 214.07,26.37 280.01,81.78l0.07 -0.09c595.19,469.05 719.31,1176.8 706.1,1730.57l11.92 4.56c441.03,168.84 298.84,677.22 143.89,1231.2 -16.24,58.05 -32.68,116.85 -52.49,190.79 -20.03,74.76 -68.85,127.51 -130.13,162.77 -46.18,26.56 -109.82,44.87 -163.19,52.91 -6.55,77.31 -12.74,152.36 -18.16,222.93 -0.94,241.63 -181.1,496.65 -428.95,704.08 -270.89,226.72 -626.43,400.34 -912.86,435.47l-4.64 0.57 -48.14 0 -1.67 -0.28 -23.02 -0.56 -23.01 0.56 -1.68 0.28 -48.12 0 -4.64 -0.57c-286.44,-35.13 -641.99,-208.75 -912.87,-435.47 -247.86,-207.43 -428.02,-462.45 -428.96,-704.08 -5.35,-69.72 -11.46,-143.79 -17.92,-220.1 -62.63,-5.23 -135.43,-23.41 -191.64,-55.74 -61.28,-35.26 -110.11,-88.01 -130.13,-162.77 -19.89,-74.22 -36.26,-132.75 -52.49,-190.75 -137.44,-491.36 -264.78,-946.84 15.92,-1161.35zm3299.57 736.06c-14.17,223.06 -33.01,441.43 -51.44,655.1l-2.46 28.53c24.01,-5.86 47.09,-14.42 67.35,-26.07 30.13,-17.34 65.85,-44.7 74.91,-78.49 14.51,-54.18 33.86,-123.35 53.04,-191.92 131.88,-471.47 253.19,-905.48 -25.18,-1045.1 -8.64,124.55 -23.3,238.25 -39.48,335.61 -17.8,107.13 -37.12,193.67 -52.17,253.4 -6.54,25.94 -15.27,49.12 -24.57,68.94z"/>
  <path class="fil1 str0" d="M2755.81 12556.45l0 -4098.65 949.58 0 0 263.06 -105.78 0c-104.16,0 -173.67,10.39 -208.33,31.49 -35.59,21.68 -61.99,53.39 -79.94,94.47 -18.37,42.06 -27.45,142.13 -27.45,300.37l0 2719.86c0,151.79 3.89,238.04 9.69,260.81 14.37,56.35 40.25,98.7 78.32,125.16 38.62,26.83 114.66,40.37 227.71,40.37l105.78 0 0 263.06 -949.58 0zm5847.6 -4098.65l0 4098.65 -949.57 0 0 -263.06 105.78 0c104.16,0 173.5,-10.67 208.32,-30.68 35.42,-20.36 61.69,-51.08 79.94,-93.67 18.07,-42.19 27.45,-141.3 27.45,-297.14l0 -2729.55c0,-150.19 -3.91,-235.59 -9.69,-257.58 -14.39,-54.73 -40.24,-95.47 -78.32,-122.73 -38.62,-27.64 -114.67,-41.18 -227.7,-41.18l-105.78 0 0 -263.06 949.57 0z"/>
  <path class="fil1 str0" d="M11225.79 11055.68c0,51.28 1.65,104.54 4.92,159.73 3.39,57.31 8.47,117.73 15.19,181.19l7.13 67.19 -67.57 -3.11c-64.18,-2.95 -149.08,-5.17 -254.63,-6.61 -96.01,-1.31 -224.84,-1.97 -386.58,-1.97 -195.42,0 -354.43,0.66 -477.2,1.97 -135.78,1.45 -250.48,3.67 -344,6.61l-60.22 1.9 0 -173.96 55.21 -3.05c32.7,-1.81 61.4,-4.61 86.01,-8.35 22.21,-3.38 39.45,-7.31 51.65,-11.75 7.81,-2.83 14.13,-6.7 18.88,-11.56l0.23 -0.23c4.89,-5 8.86,-11.83 11.91,-20.46 4.4,-12.47 7.83,-29.89 10.26,-52.17 2.63,-24.1 3.94,-54.14 3.94,-90.1l0 -1163.99c0,-35.96 -1.33,-66.01 -3.94,-90.11 -2.43,-22.27 -5.86,-39.69 -10.26,-52.17 -3.05,-8.63 -7.03,-15.47 -11.91,-20.45l-0.23 -0.24c-4.75,-4.85 -11.07,-8.72 -18.88,-11.56 -12.2,-4.44 -29.44,-8.36 -51.65,-11.74 -24.62,-3.74 -53.31,-6.53 -86.01,-8.35l-55.21 -3.08 0 -173.95 60.22 1.91c93.52,2.96 208.21,5.17 344,6.61 122.76,1.32 281.96,1.98 477.2,1.98 146.86,0 264.07,-0.66 351.31,-1.98 95.33,-1.43 172.21,-3.64 230.66,-6.61l68.88 -3.52 -7.98 68.29c-6.8,58.25 -11.87,113.12 -15.21,164.54 -3.26,50.53 -4.91,99.32 -4.91,146.3 0,39.56 0.67,72.97 1.98,100.15 1.4,29.05 3.45,53.92 6.15,74.57l8.62 65.92 -187.5 0 -4.59 -53.61c-6.52,-76.34 -17.65,-140.62 -33.36,-192.79 -14.54,-48.29 -32.68,-85.29 -54.36,-110.92 -20.3,-23.99 -47.51,-42.18 -81.56,-54.54 -37.11,-13.47 -82.82,-20.22 -137.04,-20.22l-214.58 0c-34.27,0 -62.8,1.2 -85.56,3.57 -21.7,2.26 -38.55,5.42 -50.5,9.39 -14.13,4.71 -23.96,14.84 -29.43,30.33 -4.4,12.47 -7.82,29.9 -10.25,52.18 -2.63,24.09 -3.95,54.15 -3.95,90.1l0 488.32 185.57 0c47.09,0 81.57,-10.62 103.44,-31.84 13.59,-13.2 24.76,-26.62 33.44,-40.21 8.37,-13.09 14.75,-26.76 19.12,-40.97 5.55,-18.05 10.81,-38.24 15.75,-60.5 4.87,-21.95 9.8,-47.8 14.74,-77.47l8.15 -48.82 180.72 0 -5.62 63.41c-3.08,34.85 -5.28,68.73 -6.61,101.62 -1.31,32.43 -1.97,69.46 -1.97,110.88l0 111.69c0,39.11 1.4,84.68 4.18,136.65 2.77,51.84 7.18,114.51 13.22,188l5.18 62.95 -182.47 0 -6.41 -51.32c-5.51,-44.11 -13.33,-82.67 -23.43,-115.61 -9.75,-31.82 -21.6,-58.81 -35.52,-80.9 -10.19,-16.18 -25.14,-28.51 -44.82,-36.94 -23.38,-10.01 -53.77,-15.04 -91.09,-15.04l-185.57 0 0 500.09c0,35.95 1.32,66 3.95,90.09 2.43,22.29 5.85,39.7 10.25,52.18 5.47,15.49 15.3,25.62 29.43,30.33l0.22 0c12,4.01 28.79,7.15 50.28,9.39 22.76,2.38 51.29,3.58 85.56,3.58l214.58 0c45.92,0 85.99,-3.46 120.14,-10.38 32.47,-6.57 60.5,-16.37 84.02,-29.34 45.09,-24.87 79.7,-65.85 103.79,-122.87 13.14,-31.12 24.51,-69.33 34.05,-114.57 9.92,-47.07 17.72,-100.6 23.34,-160.56l4.99 -53.15 185.69 0 -7.21 64.78c-2.88,25.87 -5.01,55.38 -6.38,88.48 -1.31,31.56 -1.98,70.52 -1.98,116.77zm1693.63 -999.56c-11.57,0.65 -23.19,1.67 -34.84,3.05 -11.93,1.4 -21.42,2.84 -28.5,4.26 -7.67,1.54 -14.57,3.3 -20.61,5.22l0 0.22c-5.8,1.83 -10.1,3.44 -12.85,4.8 -2.18,1.22 -4.38,2.63 -6.47,4.27l-0.11 -0.14c-1.49,1.19 -2.93,2.6 -4.24,4.18l0.14 0.11c-1.47,1.79 -2.82,3.86 -4.02,6.17 -1.66,3.21 -3,6.39 -3.93,9.46 -1.64,5.34 -3.12,11.47 -4.38,18.36 -1.41,7.52 -2.62,16.17 -3.62,25.88 -1.07,10.3 -1.88,21.38 -2.4,33.15 -0.43,9.72 -0.65,23.05 -0.65,40l0 1272.47 -165.48 0 -855.41 -1184.71 0 819.69c0,29.12 1.1,53.57 3.26,73.3l0 0.23c1.99,18.09 4.81,32.46 8.43,43.07 1.1,3.22 2.25,5.85 3.42,7.85 1.05,1.81 2.45,3.65 4.12,5.44 1.51,1.64 3.44,3.28 5.76,4.89l0 0.23c2.44,1.71 5.43,3.37 8.9,4.91 4.18,1.87 9.65,3.77 16.4,5.66 6.89,1.94 15.25,3.79 25.02,5.52 11.41,2.03 22.76,3.64 33.93,4.8 12.76,1.34 26.39,2.37 40.81,3.09l69.57 3.48 0 196.75 -78.98 -6.55c-16.73,-1.39 -32.11,-2.47 -46.31,-3.2 -18.48,-0.96 -36.72,-1.71 -54.72,-2.23 -20.38,-0.6 -41.89,-1.05 -64.38,-1.32l-74.77 -0.21 -67.89 0.21c-20.11,0.27 -39.6,0.72 -58.32,1.32 -16.4,0.52 -33.18,1.28 -50.2,2.24 -16.75,0.93 -30.6,1.92 -41.49,2.9l-79.54 7.22 0 -196.7 69.01 -3.91c11.56,-0.65 23.19,-1.68 34.83,-3.05 11.94,-1.41 21.44,-2.84 28.51,-4.26 6.39,-1.28 13.29,-3.12 20.59,-5.43l0.07 0.2c4.3,-1.37 8.67,-3.17 12.99,-5.32 2.17,-1.02 4.28,-2.39 6.29,-3.96l0.11 0.14c1.52,-1.21 2.99,-2.67 4.32,-4.29 1.05,-1.27 2.33,-3.36 3.79,-6.17 1.6,-2.88 2.89,-6.07 3.93,-9.46 1.63,-5.33 3.11,-11.46 4.38,-18.35 1.4,-7.55 2.61,-16.2 3.63,-25.91 1.07,-10.29 1.87,-21.37 2.39,-33.14 0.43,-9.72 0.65,-23.04 0.65,-39.99l0 -931.58c0,-16.82 -0.22,-29.95 -0.65,-39.46 -0.5,-11.19 -1.3,-21.85 -2.39,-31.88 -1.03,-9.43 -2.14,-17.14 -3.33,-23.02l-0.23 0c-1.21,-6.1 -2.42,-10.83 -3.59,-14.15 -0.69,-1.96 -1.52,-3.73 -2.45,-5.29l-1.8 -2.55 -1.97 -1.52 0.07 -0.1c-0.91,-0.53 -2.33,-1.17 -4.26,-1.87 -3.78,-1.36 -8.66,-2.76 -14.61,-4.13 -6.09,-1.42 -13.77,-2.84 -22.99,-4.24 -11.35,-1.72 -21.7,-3.05 -31.02,-3.94 -10.53,-1.01 -22.96,-1.93 -37.26,-2.71l-69.01 -3.87 0 -196.8 79.54 7.28c10.89,0.98 24.74,1.96 41.49,2.9 17.02,0.96 33.8,1.72 50.2,2.24 18.72,0.6 38.21,1.05 58.32,1.31l67.89 0.21 62.29 -0.21c18.74,-0.26 37.48,-0.71 56.07,-1.31 16.17,-0.52 33.18,-1.27 51.05,-2.23 13.5,-0.71 29.23,-1.81 46.94,-3.2l40.68 -3.25 661.9 921.29 0 -565.37c0,-29.45 -1.12,-54.18 -3.34,-74.06 -1.16,-10.39 -2.42,-18.89 -3.73,-25.4 -1.18,-5.86 -2.69,-11.52 -4.55,-16.93 -1.3,-3.59 -2.46,-6.32 -3.5,-8.11 -1.08,-1.83 -2.44,-3.66 -4.08,-5.42 -1.87,-2.01 -3.84,-3.74 -5.8,-5.11 -2.44,-1.7 -5.42,-3.35 -8.88,-4.9 -4.17,-1.86 -9.65,-3.76 -16.4,-5.66 -6.87,-1.93 -15.24,-3.78 -25.01,-5.51 -11.41,-2.03 -22.77,-3.65 -33.94,-4.8 -12.76,-1.34 -26.39,-2.38 -40.81,-3.09l-69.57 -3.53 0 -196.77 78.98 6.62c16.73,1.39 32.11,2.46 46.31,3.2 18.48,0.96 36.72,1.71 54.71,2.23 20.34,0.6 41.7,1.04 64.09,1.31l75.06 0.21 67.89 -0.21c20.11,-0.26 39.59,-0.71 58.32,-1.31 16.4,-0.52 33.18,-1.28 50.2,-2.24 16.75,-0.94 30.6,-1.92 41.49,-2.9l79.54 -7.28 0 196.69 -69 3.98zm7502.96 825.68l0 264.89c0,28.93 1.03,52.74 3.05,71.34 0.84,7.78 2.05,15.51 3.55,23.06 1.21,6.09 2.43,10.81 3.59,14.11 0.78,2.23 1.57,4.04 2.34,5.34l0.09 -0.05 1.78 2.49 1.98 1.56c1.11,0.69 2.55,1.38 4.22,1.98 3.79,1.38 8.68,2.77 14.58,4.14 6.09,1.41 13.77,2.84 23.03,4.24 11.33,1.72 21.68,3.04 31,3.94 10.53,1.01 22.97,1.93 37.27,2.71l69.01 3.8 0 194.89 -77.57 -5.01c-20.21,-1.32 -40.1,-2.39 -59.61,-3.18 -22.7,-0.94 -45.94,-1.7 -69.65,-2.25 -25.28,-0.59 -52.02,-1.04 -80.09,-1.32l-92.58 -0.21 -97.26 0.21c-29.48,0.28 -56.94,0.73 -82.28,1.32 -23.62,0.54 -46.53,1.3 -68.57,2.24 -18.21,0.77 -36.86,1.85 -55.68,3.19l-78.13 5.57 0 -195.45 69.01 -3.8c14.3,-0.78 26.74,-1.7 37.27,-2.71 9.31,-0.9 19.67,-2.22 31.01,-3.94 9.25,-1.4 16.94,-2.83 23.03,-4.24 5.91,-1.37 10.79,-2.76 14.58,-4.14 1.93,-0.69 3.35,-1.33 4.26,-1.86l-0.07 -0.1 1.97 -1.52 1.79 -2.55c0.94,-1.56 1.77,-3.34 2.45,-5.29 1.53,-4.32 2.82,-9.05 3.82,-14.09 1.18,-5.91 2.31,-13.62 3.33,-23.08 1.1,-10.01 1.9,-20.65 2.4,-31.8 0.43,-9.53 0.65,-22.69 0.65,-39.54l0 -955.71c0,-28.92 -1.03,-52.75 -3.05,-71.34 -0.83,-7.78 -2.05,-15.51 -3.55,-23.07l0.22 -0.05c-1.01,-5.03 -2.28,-9.72 -3.82,-14.05 -0.68,-1.96 -1.51,-3.73 -2.45,-5.29l-1.79 -2.55 -1.97 -1.52 0.07 -0.1c-0.91,-0.53 -2.34,-1.17 -4.26,-1.87 -3.79,-1.36 -8.67,-2.76 -14.61,-4.13 -6.09,-1.42 -13.77,-2.84 -23,-4.24 -11.34,-1.72 -21.7,-3.05 -31.01,-3.94 -10.53,-1.01 -22.97,-1.93 -37.27,-2.71l-69.01 -3.87 0 -195.44 78.13 5.63c18.72,1.33 37.15,2.42 55,3.19 21.49,0.94 43.5,1.7 65.92,2.24 24.28,0.59 50.16,1.04 77.53,1.31l90.86 0.21 0 0.24 256.94 -2.33 24.9 -1.08 26.21 -0.75 56.38 -0.9c45.63,0 89.09,2.51 130.29,7.47 41.13,4.97 80.22,12.59 117.17,22.84 37.2,10.32 71.96,23.43 104.2,39.26 33.05,16.25 62.9,34.99 89.49,56.21 27.1,21.62 50.99,45.31 71.63,70.99 20.65,25.69 38.03,53.53 52.06,83.46 13.93,29.67 24.33,60.94 31.18,93.74 6.89,32.91 10.34,66.95 10.34,102.06 0,44.61 -5.49,88.48 -16.46,131.41 -5.34,20.94 -12.19,42.06 -20.54,63.3 -7.91,20.2 -17.45,40.73 -28.55,61.54 -11.75,22.02 -25.17,42.59 -40.18,61.65 -15.2,19.29 -32.39,37.7 -51.56,55.18 -18.02,16.45 -38.49,32.44 -61.34,47.94 -21.9,14.86 -45.64,28.86 -71.08,41.92 -25.92,13.29 -53.88,24.94 -83.84,34.89 -30.1,9.98 -61.43,18.15 -93.93,24.44 -33.03,6.4 -67.4,11.16 -103.03,14.25 -35.98,3.11 -73.69,4.68 -113.08,4.68l-88.71 0zm105.6 -825.4c-12.09,0 -22.22,0.27 -30.34,0.79 -8.32,0.53 -16.45,1.4 -24.29,2.57l-0.22 0c-6.38,0.95 -12.12,2.13 -17.15,3.47 -4.14,1.12 -7.59,2.3 -10.28,3.51l-0.22 0c-1.31,0.59 -2.52,1.3 -3.59,2.09 -0.88,0.65 -1.73,1.44 -2.49,2.34 -1.26,1.45 -2.31,2.95 -3.13,4.44 -1.34,2.46 -2.49,5.1 -3.41,7.85 -1.14,3.49 -2.45,8.78 -3.85,15.88 -1.45,7.36 -2.67,15.25 -3.58,23.6 -1.1,9.89 -1.9,20.15 -2.4,30.74 -0.43,9.15 -0.65,21.57 -0.65,37.3l0 496.57 64.57 0c65.5,0 119.84,-7.33 162.95,-21.98 38.74,-13.16 68.1,-32.13 88.04,-56.83 11.19,-13.87 21.06,-29.1 29.55,-45.62 8.44,-16.24 15.62,-34.43 21.59,-54.48 6.18,-20.74 10.78,-42.5 13.77,-65.25 3,-22.82 4.51,-48.26 4.51,-76.24 0,-58.32 -5.79,-108.09 -17.33,-149.33 -10.73,-38.35 -26.25,-69.16 -46.48,-92.38 -9.3,-10.65 -20.25,-20.08 -32.78,-28.21 -13.09,-8.49 -28.13,-15.7 -45.03,-21.58 -17.92,-6.24 -38.22,-11 -60.85,-14.27 -22.94,-3.31 -48.6,-4.98 -76.91,-4.98zm2018.24 1061.34c0,24.66 0.27,45.58 0.81,62.85 0.62,19.87 1.68,42.2 3.13,66.81 1.21,20.56 2.98,44.47 5.26,71.68 2.38,28.46 4.76,53.7 7.12,76.04l8.87 83.96 -84.42 -3.85c-27.21,-1.24 -57.59,-2.32 -90.97,-3.17 -35.44,-0.92 -74.61,-1.69 -117.34,-2.26 -43.04,-0.59 -90.97,-1.04 -143.67,-1.32l-173.44 -0.21c-111.9,0 -180.92,0.08 -211.94,0.21 -65.06,0.29 -124.99,0.74 -179.68,1.32 -55.24,0.58 -106.67,1.35 -154.15,2.25 -45.79,0.88 -88.37,1.95 -127.72,3.18 -24.75,0 -50.44,1.54 -75.27,2.3l0 -192.18 69.01 -3.8c14.3,-0.78 26.74,-1.7 37.26,-2.71 9.32,-0.9 19.68,-2.22 31.02,-3.94 9.25,-1.4 16.94,-2.83 23.03,-4.24 5.9,-1.37 10.79,-2.76 14.58,-4.14 1.93,-0.69 3.35,-1.33 4.25,-1.86l-0.06 -0.1 1.96 -1.52 1.8 -2.55c0.94,-1.56 1.77,-3.34 2.45,-5.29 1.52,-4.32 2.81,-9.05 3.82,-14.09 1.18,-5.91 2.3,-13.62 3.33,-23.08 1.09,-10.01 1.9,-20.65 2.4,-31.8 0.43,-9.53 0.65,-22.69 0.65,-39.54l0 -955.71c0,-28.92 -1.03,-52.75 -3.05,-71.34 -0.84,-7.78 -2.05,-15.51 -3.55,-23.07l0.22 -0.05c-1.02,-5.03 -2.29,-9.72 -3.82,-14.05 -0.68,-1.96 -1.51,-3.73 -2.45,-5.29l-1.8 -2.55 -1.96 -1.52 0.06 -0.1c-0.9,-0.53 -2.33,-1.17 -4.25,-1.87 -3.79,-1.36 -8.68,-2.76 -14.61,-4.13 -6.09,-1.42 -13.77,-2.84 -23,-4.24 -11.34,-1.72 -21.7,-3.05 -31.02,-3.94 -10.52,-1.01 -22.96,-1.93 -37.26,-2.71l-69.01 -3.87 0 -192.25 75.27 2.44c39.29,1.24 81.87,2.31 127.71,3.18 47.47,0.9 98.89,1.67 154.16,2.25 54.69,0.59 114.6,1.03 179.68,1.31l211.94 0.21 157.57 -0.21c47.84,-0.27 91.37,-0.72 130.51,-1.31 38.37,-0.57 73.8,-1.33 106.2,-2.25 29.81,-0.84 57.27,-1.91 82.29,-3.18l86.04 -4.41 -9.92 85.38c-3.19,27.49 -5.67,50.59 -7.36,68.97 -1.82,19.71 -3.51,41.34 -5.02,64.9 -1.47,22.82 -2.51,43.14 -3.12,60.99 -0.54,15.82 -0.82,34.99 -0.82,57.53l0.21 43.39c0.25,12.13 0.7,24.74 1.32,37.63 0.42,9.02 1.18,19.83 2.2,32.28 1.02,12.19 1.91,21.27 2.64,26.92 0,21.51 7.71,59.67 10.67,82.41l-205.32 0 -5.68 -67c-2.63,-31.04 -6.2,-59.39 -10.63,-84.96 -4.36,-25.1 -9.64,-47.88 -15.77,-68.27 -5.73,-19.02 -12.12,-35.6 -19.1,-49.68 -6.36,-12.82 -13.27,-23.64 -20.66,-32.38 -6.84,-8.09 -14.71,-15.13 -23.51,-21.05l-0.24 0c-9.74,-6.57 -20.64,-12.05 -32.63,-16.4 -13.16,-4.78 -28.35,-8.47 -45.53,-11.05 -17.56,-2.65 -37.09,-3.99 -58.49,-3.99l-176.19 0c-27.29,0 -49.62,0.9 -66.94,2.66 -16.19,1.66 -28.46,3.86 -36.73,6.62l-0.22 0c-1.06,0.36 -2.2,0.9 -3.38,1.59l-1.32 1.23 -0.22 0 -1.31 1.77 -0.1 -0.06c-0.55,0.97 -1.27,2.66 -2.09,5.01 -1.13,3.07 -2.32,7.8 -3.58,14.12l-0.23 0c-1.19,5.88 -2.3,13.59 -3.33,23.05 -1.09,10.01 -1.89,20.63 -2.39,31.8 -0.43,9.52 -0.65,22.69 -0.65,39.54l0 375.9 127.32 0c17.61,0 32.44,-1.98 44.46,-5.94 9.68,-3.19 17.38,-7.56 23.05,-13.07 4.56,-4.42 9.06,-9.31 13.43,-14.6 4.45,-5.36 7.93,-10.03 10.42,-13.91 2.87,-4.48 5.41,-9.12 7.61,-13.83 1.98,-4.25 3.74,-8.85 5.24,-13.75 4.4,-14.29 8.58,-30.31 12.48,-47.95 3.84,-17.29 7.78,-38.01 11.79,-62.1l10.15 -61.02 196.84 0 -6.94 79.27c-1.44,16.39 -2.52,30.04 -3.21,40.86 -0.99,15.62 -1.76,29.57 -2.22,41.43 -0.61,15.24 -1.06,29.82 -1.31,43.55l-0.21 46.48 0 91.71c0,19.46 0.22,36.27 0.66,50.32 0.53,17.11 1.43,37.34 2.67,60.6 1.05,19.52 2.56,43.26 4.5,71.14 1.59,22.72 3.72,50.19 6.37,82.55l6.45 78.69 -199.1 0 -7.99 -64.16c-4.36,-34.92 -10.39,-65.02 -18.08,-90.27 -7.31,-23.99 -16.19,-44.28 -26.6,-60.8 -2.83,-4.51 -6.17,-8.36 -9.93,-11.5 -4.14,-3.44 -9.33,-6.51 -15.52,-9.15 -7.44,-3.19 -16.31,-5.69 -26.55,-7.44 -11.08,-1.9 -23.91,-2.86 -38.46,-2.86l-127.32 0 0 385.56c0,28.93 1.03,52.74 3.04,71.34 0.84,7.78 2.06,15.51 3.56,23.06 1.21,6.09 2.42,10.81 3.58,14.11 0.88,2.48 1.61,4.23 2.18,5.15l1.27 1.57 1.65 1.14 -0.05 0.1c1.15,0.68 2.3,1.22 3.37,1.58 3.04,1 7.76,2.13 14.1,3.34 6.57,1.28 13.96,2.35 22.07,3.19 9.29,0.97 19.41,1.71 30.29,2.17 8.74,0.38 21.27,0.58 37.43,0.58l176.19 0c19.85,0 36.83,-0.63 50.86,-1.87l0 -0.23c16.65,-1.47 30.99,-3.42 42.89,-5.84 12.1,-2.44 23.64,-5.59 34.54,-9.41 9.66,-3.37 18.78,-7.44 27.3,-12.14 7.48,-4.13 14.79,-9.1 21.83,-14.86 7.23,-5.92 13.74,-12.27 19.47,-18.98 6.05,-7.07 11.87,-15.25 17.42,-24.45 6.03,-9.99 11.24,-20.13 15.55,-30.36 4.66,-11.02 9.33,-24.33 13.95,-39.83 4.69,-15.74 8.88,-32.3 12.54,-49.64 3.84,-18.24 7.36,-38.28 10.52,-60.04 3.34,-23.16 6.12,-46.2 8.24,-68.96l6.18 -66.43 203.15 0 -8.98 80.98c-1.07,9.69 -2.06,20.64 -2.92,32.85 -1.01,14.09 -1.76,26.79 -2.22,38.04 -0.61,14.73 -1.06,29.51 -1.31,44.17l-0.21 50.72zm-442.12 -1857.46c8.42,-5.25 17.1,-10.05 25.96,-14.33 8.76,-4.23 17.74,-7.88 26.84,-10.92l0.22 0c10.22,-3.41 19.77,-5.89 28.56,-7.4 10.14,-1.75 19.93,-2.63 29.3,-2.63 13.23,0 26.38,1.62 39.39,4.86 13.18,3.27 25.63,8.12 37.31,14.53 11.59,6.49 22.2,14.11 31.74,22.93 9.43,8.7 18.09,18.66 25.97,29.8l2.23 3.25 -0.12 0.07c4.16,6.36 7.58,12.3 10.25,17.79l0 0.23c3.33,6.88 6.16,13.87 8.39,20.96 2.42,7.42 4.21,14.94 5.36,22.42l0 0.23c1.17,7.66 1.77,15.27 1.77,22.81 0,16.23 -2.57,32.3 -7.7,48.11 -4.99,15.14 -12.23,29.59 -21.7,43.31 -8.43,12.19 -18.85,23.9 -31.17,35.06 -11.56,10.49 -24.51,20.24 -38.8,29.23l-2.5 1.47c-10.66,6.52 -21.63,12.66 -32.88,18.38 -12.27,6.25 -26.55,12.99 -42.79,20.2l-0.04 -0.11c-15.86,7.06 -32.54,14.12 -49.98,21.14 -15.94,6.42 -35.13,13.81 -57.3,22.08 -24.89,10.03 -53.48,21.78 -86.01,35.42 -29.37,12.32 -56.11,23.81 -79.99,34.36 -29.84,13.17 -54.37,24.26 -73.52,33.23 -23.77,11.12 -45.91,21.82 -66.38,32.05l0 0.22 -63.14 31.5 -80.04 -148.64 49.88 -37.63c33.48,-25.3 63.44,-48.75 89.84,-70.28 26.44,-21.56 51.61,-43.07 75.46,-64.49l0.23 0c25.33,-22.69 50.62,-45.42 76.07,-67.97l0.22 -0.45 12.36 -10.77c13.03,-12.21 27.13,-25.16 42.48,-38.91 16.1,-14.43 29.52,-26.14 40.19,-35.06 12.72,-10.63 25.21,-20.62 37.39,-29.89l0.23 0c14.45,-10.98 25.96,-19.34 34.42,-24.98l2 -1.18zm1276.58 601.88c65.42,0 127.68,4.1 186.72,12.27 58.91,8.15 114.02,20.5 165.25,36.99 52.33,16.84 100.43,37.97 144.22,63.32 44.33,25.65 84.43,55.74 120.24,90.17 71.34,68.62 124.71,152.41 160.05,251.28 34.6,96.85 51.91,207.98 51.91,333.34 0,39.55 -2.1,78.75 -6.3,117.58 -4.13,38.39 -10.36,75.54 -18.62,111.36 -8.26,35.76 -18.77,70.75 -31.49,104.84 -12.8,34.31 -27.53,66.92 -44.13,97.73 -17.14,31.79 -36.09,61.6 -56.8,89.35 -20.64,27.68 -43.61,53.99 -68.85,78.89 -24.42,24.08 -51.13,46.69 -80.12,67.8 -29.37,21.39 -59.67,40.39 -90.86,56.95 -31.54,16.74 -65.24,31.62 -101.03,44.6 -34.7,12.57 -71.26,23.14 -109.66,31.66 -38.04,8.43 -77.18,14.73 -117.33,18.86 -41.26,4.22 -82.92,6.36 -124.92,6.36l-6.74 0 -6.72 -1.6c-6.52,-1.54 -80.44,-1.27 -113.8,-1.15 -26.06,0.09 -51.98,-1.19 -78.04,-2.06l-53.44 -1.51 -43.03 -0.85 -129.1 0.14c-27.97,0.28 -54.35,0.73 -79.02,1.32 -22.86,0.54 -45.17,1.3 -66.83,2.24 -18.11,0.78 -36.62,1.86 -55.3,3.19l-78.13 5.57 0 -195.45 69.01 -3.8c14.3,-0.78 26.74,-1.7 37.27,-2.71 9.31,-0.9 19.67,-2.22 31.01,-3.94 9.25,-1.4 16.94,-2.83 23.03,-4.24 5.91,-1.37 10.79,-2.76 14.58,-4.14 1.93,-0.69 3.35,-1.33 4.26,-1.86l-0.07 -0.1 1.97 -1.52 1.79 -2.55c0.94,-1.56 1.77,-3.34 2.45,-5.29 1.53,-4.32 2.82,-9.05 3.82,-14.09 1.18,-5.91 2.31,-13.62 3.33,-23.08 1.1,-10.01 1.9,-20.65 2.4,-31.8 0.43,-9.53 0.65,-22.69 0.65,-39.54l0 -955.71c0,-28.92 -1.03,-52.75 -3.05,-71.34 -0.83,-7.78 -2.05,-15.51 -3.55,-23.07l0.22 -0.05c-1.01,-5.03 -2.28,-9.72 -3.82,-14.05 -0.68,-1.96 -1.51,-3.73 -2.45,-5.29l-1.79 -2.55 -1.97 -1.52 0.07 -0.1c-0.91,-0.53 -2.34,-1.17 -4.26,-1.87 -3.79,-1.36 -8.67,-2.76 -14.61,-4.13 -6.09,-1.42 -13.77,-2.84 -23,-4.24 -11.34,-1.72 -21.7,-3.05 -31.01,-3.94 -10.53,-1.01 -22.97,-1.93 -37.27,-2.71l-69.01 -3.87 0 -196.59 78.99 6.78c16.31,1.39 31.25,2.49 44.65,3.2 17.8,0.96 35.16,1.71 52.12,2.23 19.42,0.6 39.78,1.05 60.95,1.31l70.39 0.21 0 0.24 203.15 -2.35 75.36 -2.12 62.17 -1.51 84.09 -1.49zm-60.34 189.42c-12.09,0 -22.22,0.27 -30.34,0.78 -8.32,0.53 -16.45,1.41 -24.29,2.58l-0.22 0c-6.39,0.94 -12.13,2.13 -17.16,3.47 -4.14,1.1 -7.58,2.29 -10.27,3.5 -1.66,0.74 -2.96,1.47 -3.82,2.11 -0.87,0.64 -1.72,1.43 -2.48,2.32l-0.24 0.24c-1.02,1.19 -1.99,2.61 -2.85,4.19 -1.23,2.25 -2.4,4.99 -3.45,8.14 -1.23,3.7 -2.52,8.93 -3.85,15.61 -1.45,7.37 -2.67,15.26 -3.58,23.6 -1.1,9.88 -1.9,20.15 -2.4,30.73 -0.43,9.15 -0.65,21.56 -0.65,37.29l0 965.38c0,27.08 1.03,49.78 3.05,68.04 0.91,8.33 2.13,16.22 3.58,23.58 1.37,6.95 2.64,12.18 3.77,15.65 0.98,2.71 2.15,5.38 3.53,7.9l0 0.22c0.82,1.51 1.87,3.01 3.09,4.42 0.76,0.89 1.61,1.69 2.49,2.34 1.07,0.79 2.28,1.5 3.59,2.09l0.22 0c2.83,1.28 6.26,2.46 10.18,3.5 4.82,1.28 10.78,2.45 17.79,3.47 7.94,1.17 16.3,2.04 24.97,2.57 8.37,0.52 18.97,0.79 31.76,0.79 35.41,0 67.67,-1.46 96.69,-4.34 29.68,-2.96 57.52,-7.39 83.43,-13.27 24.68,-5.6 47.9,-12.69 69.58,-21.24 20.61,-8.14 39.63,-17.64 56.93,-28.45 17.61,-11.01 33.55,-22.97 47.75,-35.85 14.19,-12.87 27.44,-27.33 39.66,-43.32 12.17,-15.94 23.09,-33.15 32.63,-51.55l0 -0.24c10.2,-19.64 18.75,-39.82 25.63,-60.48 15.44,-46.31 27.08,-99.84 34.92,-160.5 7.83,-60.8 11.77,-130.04 11.77,-207.67 0,-111.19 -9.99,-206.67 -29.96,-286.36 -19.14,-76.43 -47.29,-138.05 -84.4,-184.78 -17.53,-22.08 -38.04,-41.32 -61.46,-57.66 -23.85,-16.64 -51.47,-30.77 -82.79,-42.34 -32.42,-11.97 -68.65,-21.03 -108.6,-27.12 -40.77,-6.23 -85.52,-9.34 -134.2,-9.34zm1647.54 4.54c-14.3,0.78 -26.73,1.7 -37.26,2.71 -9.33,0.89 -19.68,2.22 -31.01,3.94 -9.22,1.4 -16.9,2.82 -22.99,4.24 -5.95,1.37 -10.83,2.77 -14.61,4.13 -1.68,0.61 -3.11,1.3 -4.23,1.99l-1.97 1.56c-0.69,0.7 -1.31,1.48 -1.78,2.28l0 0.22c-0.93,1.54 -1.76,3.31 -2.44,5.28 -1.14,3.07 -2.33,7.8 -3.59,14.12l-0.23 0c-1.18,5.88 -2.29,13.59 -3.32,23.05 -1.09,10.01 -1.9,20.63 -2.39,31.8 -0.43,9.52 -0.65,22.69 -0.65,39.54l0 955.71c0,28.93 1.02,52.74 3.04,71.34 0.84,7.78 2.05,15.51 3.55,23.06 1.22,6.09 2.43,10.81 3.59,14.11 0.78,2.23 1.58,4.04 2.34,5.34l0.1 -0.05 1.78 2.49 1.97 1.56c1.12,0.69 2.55,1.38 4.23,1.98 3.78,1.38 8.67,2.77 14.57,4.14 66.5,15.42 165.98,28.38 221.21,-8.21 17.55,-11.64 33.74,-26.6 48.49,-44.85 17.02,-21.05 33.49,-45.39 49.36,-72.95 16.31,-28.3 32.47,-60.83 48.46,-97.54 0,-12.47 600.61,-1359.04 665.04,-1504.82l122.9 0c67.71,152.96 703.26,1577.22 703.26,1590.07 23.19,53.25 48.77,92.85 76.7,118.76 23.37,21.67 48.54,33.18 75.47,34.45l55.66 2.64 0 177.16 -62.73 -4.69c-40.25,-3.01 -85.17,-5.23 -134.67,-6.61 -46.9,-1.31 -105.39,-1.97 -175.5,-1.97 -90.11,0 -163.21,0.66 -219.32,1.97 -59.74,1.39 -110.71,3.61 -152.82,6.61l-62.49 4.45 0 -176.58 55.42 -2.98c33.85,-1.82 62.84,-4.96 86.91,-9.37 21.99,-4.03 39.38,-8.97 52.08,-14.77 6.83,-3.13 11.5,-6.59 13.95,-10.39 2.17,-3.36 3.27,-8.73 3.27,-16.06 0,-10.2 -2.6,-24.01 -7.78,-41.4 -6.12,-20.61 -15.52,-44.89 -28.12,-72.81l-134.39 -300.64 -639.12 0 -84.32 186.01c-15.33,35.1 -26.76,66.86 -34.29,95.23 -6.94,26.15 -10.43,49.16 -10.43,68.94 0,17.36 2.71,31.97 8.11,43.8 18.64,40.76 130.96,84.49 166.62,87.97l52.92 5.15 0 175.9 -64.1 -6.4c-253.75,-25.29 -908.24,-23.53 -1218.73,-1.5l-78.12 5.57 0 -195.45 69.01 -3.8c14.3,-0.78 26.73,-1.7 37.26,-2.71 9.31,-0.9 19.67,-2.22 31.02,-3.94 9.24,-1.4 16.94,-2.83 23.03,-4.24 5.9,-1.37 10.79,-2.76 14.57,-4.14 1.93,-0.69 3.36,-1.33 4.26,-1.86l-0.06 -0.1 1.96 -1.52 1.8 -2.55c0.94,-1.56 1.76,-3.34 2.45,-5.29 1.52,-4.32 2.81,-9.05 3.82,-14.09 1.18,-5.91 2.3,-13.62 3.33,-23.08 1.09,-10.01 1.9,-20.65 2.39,-31.8 0.43,-9.53 0.65,-22.69 0.65,-39.54l0 -955.71c0,-28.92 -1.02,-52.75 -3.04,-71.34 -0.84,-7.78 -2.05,-15.51 -3.55,-23.07l0.22 -0.05c-1.02,-5.03 -2.29,-9.72 -3.82,-14.05 -0.69,-1.96 -1.51,-3.73 -2.45,-5.29l-1.8 -2.55 -1.96 -1.52 0.06 -0.1c-0.9,-0.53 -2.34,-1.17 -4.26,-1.87 -3.78,-1.36 -8.67,-2.76 -14.61,-4.13 -6.09,-1.42 -13.77,-2.84 -22.99,-4.24 -11.35,-1.72 -21.71,-3.05 -31.02,-3.94 -10.53,-1.01 -22.96,-1.93 -37.26,-2.71l-69.01 -3.87 0 -195.44 78.12 5.63c18.83,1.34 37.47,2.42 55.68,3.19 22.05,0.94 44.95,1.7 68.58,2.24 25.33,0.59 52.8,1.04 82.27,1.31l97.27 0.21 91.67 -0.21c27.85,-0.27 54.49,-0.72 79.78,-1.31l0.23 0c23.36,-0.54 46.65,-1.3 69.73,-2.24 19.62,-0.79 39.87,-1.87 60.52,-3.19l77.56 -4.96 0 194.77 -69.01 3.87zm-10933.31 -540.28c104.73,0 194.51,18.16 269.27,54.44 36.01,17.46 72.6,38.89 109.67,64.23 36.01,24.58 72.87,53.18 110.6,85.72l0.08 -0.1c10.76,8.81 17.08,13.22 18.89,13.22 5.76,0 -7.38,-2.92 -4.87,-8.74 10.29,-23.73 18.09,-62.06 23.36,-114.93l5.27 -52.69 182.58 0 -4.15 62.27c-3.96,59.57 -6.92,139.43 -8.82,239.54 -1.79,94.77 -2.71,219.42 -2.71,373.85l0 58.4 -174.11 0 -9.13 -47.45c-18.91,-98.36 -37.46,-170.25 -55.6,-215.61 -8.84,-22.1 -19.8,-44.29 -32.86,-66.47 -13.29,-22.61 -29.09,-45.82 -47.33,-69.53l-0.47 -0.46c-24.83,-32.82 -52,-61.68 -81.49,-86.53 -29.49,-24.88 -61.15,-45.78 -94.9,-62.65 -67.9,-33.95 -139.6,-50.94 -215.04,-50.94 -51.54,0 -99.19,7.68 -142.87,23.03 -43.37,15.23 -83.81,38.35 -121.23,69.33 -38.24,31.63 -72.22,70.35 -101.92,116.1 -30.41,46.86 -56.66,101.57 -78.7,164.05 -22.25,63.01 -38.99,131.89 -50.19,206.56 -11.28,75.29 -16.94,156.76 -16.94,244.35 0,177.16 24.53,327.28 73.56,450.34 24.14,60.55 52.57,113.79 85.25,159.64 31.94,44.81 67.77,82.28 107.45,112.36 39.37,29.86 81.25,52.26 125.55,67.17 43.86,14.76 90.75,22.15 140.62,22.15 39.06,0 77,-4.24 113.76,-12.73 37.15,-8.57 73.6,-21.46 109.3,-38.65 35.63,-17.15 68.4,-38.06 98.22,-62.66 29.73,-24.51 57.04,-53.22 81.91,-86.08 16.67,-22.81 31.21,-46.23 43.61,-70.17 12.49,-24.09 22.93,-48.92 31.27,-74.39 8.76,-26.75 17.18,-59.26 25.24,-97.48 8.16,-38.75 16.15,-84.43 23.92,-136.92l7.4 -49.95 176.3 0 0 58.4c0,161.75 0.9,292.23 2.7,391.49 1.91,105.2 4.86,189.06 8.83,251.52l3.95 62.04 -182.51 0 -5.14 -52.92c-2.66,-27.42 -6.11,-51.88 -10.34,-73.29 -3.73,-18.84 -7.74,-33.47 -12.01,-43.8l-1.2 -2.82c-3.87,2.35 -8.95,5.87 -15.22,10.55 -39.23,32.93 -77.2,61.42 -113.87,85.45 -38.1,24.97 -76.46,46.32 -115.04,64 -78.51,35.98 -172.81,53.98 -282.84,53.98 -184.01,0 -346.15,-38.2 -486.37,-114.59 -70.9,-38.62 -133.85,-86.23 -188.81,-142.76 -54.73,-56.32 -101.63,-121.64 -140.6,-195.93 -38.85,-74 -67.88,-154.71 -87.04,-242.02 -19.04,-86.72 -28.56,-180.14 -28.56,-280.17 0,-197.35 39.44,-372.35 118.31,-524.91 39.7,-76.79 87.34,-145.09 142.87,-204.79 55.61,-59.82 119.16,-111.02 190.59,-153.57l0.23 0c71.59,-42.63 147.59,-74.53 227.93,-95.65 80.66,-21.21 165.47,-31.83 254.39,-31.83zm1731.54 216.5c-32.71,1.82 -61.4,4.61 -86.01,8.35 -22.22,3.38 -39.45,7.3 -51.66,11.74 -7.7,2.79 -14.01,6.67 -18.87,11.56 -5.04,5.15 -9.1,12.06 -12.14,20.69 -4.41,12.47 -7.83,29.9 -10.25,52.18 -2.63,24.09 -3.95,54.15 -3.95,90.1l0 1163.99c0,35.95 1.32,66 3.95,90.09 2.42,22.29 5.84,39.7 10.25,52.18 3.04,8.63 7.1,15.55 12.14,20.69 4.86,4.9 11.17,8.77 18.87,11.56 12.21,4.44 29.44,8.37 51.66,11.75 24.61,3.74 53.29,6.54 86.01,8.35l55.2 3.04 0 176.11 -62.04 -4.04c-45.93,-2.99 -98.83,-5.21 -158.65,-6.61 -55.66,-1.31 -125.99,-1.97 -211,-1.97 -90.11,0 -163.21,0.66 -219.31,1.97 -59.75,1.39 -110.73,3.61 -152.82,6.61l-62.5 4.46 0 -176.52 55.2 -3.05c32.71,-1.81 61.41,-4.61 86.02,-8.35 22.21,-3.38 39.44,-7.31 51.65,-11.75 7.81,-2.83 14.13,-6.7 18.88,-11.56l0.23 -0.23c4.89,-5 8.86,-11.83 11.9,-20.46 4.41,-12.47 7.84,-29.89 10.27,-52.17 2.62,-24.1 3.94,-54.14 3.94,-90.1l0 -1163.99c0,-35.96 -1.33,-66.01 -3.94,-90.11 -2.43,-22.27 -5.86,-39.69 -10.27,-52.17 -3.04,-8.63 -7.02,-15.47 -11.9,-20.45l-0.23 -0.24c-4.75,-4.85 -11.07,-8.72 -18.88,-11.56 -12.21,-4.44 -29.44,-8.36 -51.65,-11.74 -24.62,-3.74 -53.31,-6.53 -86.02,-8.35l-55.2 -3.08 0 -176.52 62.5 4.48c42.09,3.02 93.05,5.22 152.82,6.61l0.23 0c56.11,1.32 129.22,1.98 219.08,1.98 83.95,0 153.86,-0.66 209.54,-1.98 59.79,-1.4 113.18,-3.61 160.11,-6.61l62.04 -3.97 0 176.01 -55.2 3.08zm2025.62 1580.25c-20.73,29.48 -43.22,55.78 -67.41,78.85 -24.55,23.44 -50.74,43.38 -78.46,59.79 -28.83,17.05 -60.43,29.85 -94.73,38.34 -33.57,8.32 -69.22,12.49 -106.88,12.49 -94.74,0 -172.62,-22.51 -233.59,-67.48 -61.87,-45.65 -103.8,-112.38 -125.73,-200.16l-91.07 -367.43c-12.54,-49.97 -27.76,-91.16 -45.65,-123.5l0.18 -0.1c-15.8,-28.52 -33.5,-49.56 -53.08,-63.09 -20.71,-14.31 -47.55,-25.32 -80.46,-32.99 -35.33,-8.23 -77.36,-12.36 -126.02,-12.36l-109.15 0 0 456c0,35.95 1.32,66 3.95,90.09 2.43,22.29 5.85,39.7 10.25,52.18 3.04,8.63 7.11,15.55 12.14,20.69 4.86,4.9 11.17,8.77 18.88,11.56 12.2,4.44 29.44,8.37 51.65,11.75 24.62,3.74 53.29,6.54 86.01,8.35l55.2 3.04 0 176.11 -62.04 -4.04c-45.93,-2.99 -98.82,-5.21 -158.65,-6.61 -55.66,-1.31 -125.99,-1.97 -211,-1.97 -90.11,0 -163.21,0.66 -219.31,1.97 -59.75,1.39 -110.73,3.61 -152.82,6.61l-62.5 4.46 0 -176.52 55.21 -3.05c32.7,-1.81 61.4,-4.61 86.01,-8.35 22.21,-3.38 39.44,-7.31 51.65,-11.75 7.81,-2.83 14.13,-6.7 18.88,-11.56l0.23 -0.23c4.89,-5 8.86,-11.83 11.91,-20.46 4.4,-12.47 7.83,-29.89 10.26,-52.17 2.62,-24.1 3.94,-54.14 3.94,-90.1l0 -1163.99c0,-35.96 -1.33,-66.01 -3.94,-90.11 -2.43,-22.27 -5.86,-39.69 -10.26,-52.17 -3.05,-8.63 -7.03,-15.47 -11.91,-20.45l-0.23 -0.24c-4.75,-4.85 -11.07,-8.72 -18.88,-11.56 -12.21,-4.44 -29.44,-8.36 -51.65,-11.74 -24.62,-3.74 -53.31,-6.53 -86.01,-8.35l-55.21 -3.08 0 -176.52 62.5 4.48c42.09,3.02 91.65,5.22 148.64,6.61 53.47,1.32 122.17,1.98 205.86,1.98l0 0.23 296.39 -2.9c35.92,-2.14 75.29,-3.21 118.06,-3.21 113.86,0 215.32,10.9 304.3,32.69 91.41,22.38 169.2,56.23 233.32,101.48 65.59,46.29 115.19,100.21 148.73,161.67 34.01,62.31 51.03,131.12 51.03,206.39 0,129.27 -51.11,246.66 -153.33,352.17 -51.27,52.95 -118.11,95.9 -200.47,128.84l-17.81 6.87c41.6,16.91 78.53,37.84 110.72,62.76 71.45,55.31 121.58,141.57 150.31,258.71l64.9 268.16c7.31,32.01 14.91,59.16 22.78,81.41 6.95,19.68 13.86,34.76 20.66,45.16 4.38,6.68 8.67,11.27 12.82,13.72 2.73,1.62 6.22,2.44 10.4,2.44 31.62,0 71.01,-26.71 118.1,-80.09l39.49 -44.75 122.15 113.43 -29.26 41.6zm-1082.32 -1580.02c-23.45,0 -43.33,1.41 -59.63,4.22 -13.98,2.42 -24.91,5.68 -32.74,9.73 -5.2,2.69 -9.67,6.55 -13.36,11.55 -4.75,6.42 -8.62,14.99 -11.59,25.68 -4.01,14.49 -7.1,33.12 -9.2,55.86 -2.13,23.11 -3.21,52.24 -3.21,87.35l0 532.42 138.54 0c80.55,0 147.41,-8.28 200.55,-24.81 48.55,-15.11 85.11,-36.82 109.63,-65.11 26.52,-30.61 46.54,-68.02 60.01,-112.18 14.08,-46.15 21.15,-100.43 21.15,-162.78 0,-124.79 -29.84,-216.22 -89.49,-274.24 -60.1,-58.45 -163.66,-87.69 -310.66,-87.69zm2060.5 -216.73c189.67,0 356.97,38.06 501.85,114.14 73.19,38.44 138.23,85.97 195.05,142.53 56.81,56.55 105.2,121.87 145.11,195.93 79.17,146.89 118.77,321.19 118.77,522.88 0,98.29 -10.22,191.26 -30.64,278.88 -20.48,87.94 -51.35,170.28 -92.54,246.94 -41.16,76.6 -90.47,144.8 -147.87,204.57 -57.45,59.81 -122.83,110.93 -196.11,153.32 -73.47,42.51 -151.68,74.34 -234.55,95.44 -82.67,21.05 -170.03,31.59 -262.01,31.59 -189.68,0 -356.97,-38.05 -501.86,-114.14 -73.17,-38.43 -138.2,-85.95 -195.05,-142.54 -56.81,-56.54 -105.19,-121.86 -145.1,-195.91 -39.67,-73.6 -69.43,-154.37 -89.25,-242.25 -19.67,-87.27 -29.53,-180.83 -29.53,-280.63 0,-98.3 10.22,-191.26 30.63,-278.87 20.51,-87.96 51.36,-170.29 92.56,-246.95 41.16,-76.6 90.47,-144.82 147.87,-204.57 57.45,-59.81 122.83,-110.92 196.11,-153.33 73.48,-42.5 151.68,-74.34 234.55,-95.43 82.67,-21.06 170.03,-31.6 262.01,-31.6zm-11.76 169.69c-53.07,0 -102.76,8.3 -149.03,24.86l-0.07 -0.2c-45.91,16.46 -89.18,41.5 -129.71,75.05 -41.38,34.25 -77.97,75.16 -109.7,122.66 -32.35,48.42 -60.01,104.03 -82.89,166.75 -23.27,63.77 -40.75,132.12 -52.38,204.97 -11.63,72.84 -17.46,151.25 -17.46,235.21 0,83.93 6.57,162.67 19.67,236.15 13.03,73.11 32.4,140.86 58.07,203.21 25.53,62.01 55.67,116.9 90.38,164.64 34.08,46.85 72.21,86.33 114.31,118.34 83.44,63.46 176.58,95.19 279.38,95.19 53.08,0 102.77,-8.29 149.04,-24.86 46.27,-16.56 89.55,-41.53 129.78,-74.83 41.38,-34.26 77.96,-75.18 109.7,-122.68 32.35,-48.42 60.01,-104.03 82.89,-166.75 23.27,-63.77 40.75,-132.11 52.38,-204.95 11.63,-72.85 17.46,-151.26 17.46,-235.22 0,-83.91 -6.57,-162.64 -19.67,-236.12 -13.03,-73.13 -32.4,-140.9 -58.07,-203.23 -25.53,-62.01 -55.68,-116.92 -90.39,-164.64 -34.09,-46.88 -72.2,-86.34 -114.3,-118.35 -41.78,-31.78 -86.06,-55.64 -132.76,-71.58 -46.16,-15.74 -95.05,-23.62 -146.63,-23.62zm7343.22 959.02l-242.7 -545.54 -244.86 545.54 487.56 0z"/>
 </g>
</svg>
