<?xml version="1.0" encoding="UTF-8"?>
<!DOCTYPE svg PUBLIC "-//W3C//DTD SVG 1.1//EN" "http://www.w3.org/Graphics/SVG/1.1/DTD/svg11.dtd">
<!-- Creator: CorelDRAW 2021 (64 Bit) -->
<svg xmlns="http://www.w3.org/2000/svg" xml:space="preserve" width="297mm" height="210mm" version="1.1" style="shape-rendering:geometricPrecision; text-rendering:geometricPrecision; image-rendering:optimizeQuality; fill-rule:evenodd; clip-rule:evenodd"
viewBox="0 0 29700 21000"
 xmlns:xlink="http://www.w3.org/1999/xlink"
 xmlns:xodm="http://www.corel.com/coreldraw/odm/2003">
 <defs>
  <style type="text/css">
   <![CDATA[
    .str0 {stroke:black;stroke-width:7.62;stroke-miterlimit:22.9256}
    .fil1 {fill:white;fill-rule:nonzero}
    .fil0 {fill:white;fill-rule:nonzero}
   ]]>
  </style>
 </defs>
 <g id="Camada_x0020_1">
  <metadata id="CorelCorpID_0Corel-Layer"/>
  <g id="_2088929036512">
   <path class="fil0 str0" d="M16204.88 5438.03c201.19,211.85 360.11,454.7 477.11,749.83 160.41,404.64 240.19,903.73 240.19,1552.88 0,232.7 0.07,439.82 14.27,638.7 14.22,199.55 42.42,396.54 98.46,613.19 69.65,269.31 183.67,452.13 316.26,648.58 20.92,-92.13 43.69,-204.03 64.8,-331.03 156.33,-940.65 236.25,-2755.78 -1112.24,-3818.48l-5.64 -5.14c-21.98,-19.47 -55.04,-35.58 -93.21,-48.53zm-4153.94 3978.68c36.18,-172.71 90.4,-332.99 141.73,-484.68 87.75,-259.32 165.92,-490.38 108.78,-687.2 -126.65,-436.12 -97.36,-890.93 53.88,-1305.84 155.32,-426.23 439.65,-811.07 815.63,-1090.42 291.11,-216.3 344.71,-125.03 455.45,63.68 69.51,118.44 188.02,320.28 761.81,339.32 483.47,16.04 860.57,-184.78 1036.02,-431.05 59.45,-83.45 94.04,-170.49 99.18,-253.05 4.74,-76.16 -16.26,-150.38 -66.99,-215.59 -131.74,-169.28 -449.15,-286 -1010.87,-262.23 -382.04,16.17 -724.21,109.66 -1033.27,269.36 -310.3,160.36 -588.73,388.57 -841.87,673.3l-0.24 -0.21c-368.81,443.41 -687.19,959.73 -820.57,1502.03 -106.57,433.24 -94.4,884.45 107,1329.17 14.97,29.19 61.12,153.14 105.18,276.83 36.39,102.17 71.62,210.64 89.15,276.58zm390.26 -400.47c-97.98,289.54 -207.53,613.45 -156.46,981.93l1.62 -0.26c0,0 83.41,1045.65 90.04,1123.47 21.13,244.99 42,486.58 61.54,741.7l0.52 9.77c0,358.64 291.05,757.35 691.83,1092.8 458.13,383.42 1052.71,676.81 1528.69,737.64l72.92 0 0 0.45c31.39,-0.76 59.13,-0.76 90.53,0l0 -0.45 72.94 0c475.97,-60.83 1070.53,-354.22 1528.66,-737.64 400.79,-335.45 691.84,-734.16 691.84,-1092.8l0.52 -9.77c19.54,-255.12 40.41,-496.71 61.53,-741.7 32.46,-376.12 65.6,-760.02 90.47,-1134.52 -33.7,-51.29 -64.16,-96.1 -93.78,-139.65 -163.36,-240.38 -305.58,-449.56 -393.33,-788.85 -61.02,-235.92 -91.54,-447.66 -106.7,-660.44 -15.22,-213.43 -15.32,-422.45 -15.32,-657.18 0,-616.73 -73.29,-1084.58 -220.66,-1456.34 -144.83,-365.37 -363.2,-641.62 -655.74,-879.61 -6.47,-5.24 -12.39,-10.69 -17.76,-16.3 17.85,62.99 24.32,128.25 20.2,194.37 -8.26,132.5 -59.68,266.42 -147.45,389.64 -219.65,308.32 -679.16,560.14 -1257.83,540.95 -718.36,-23.83 -882.94,-304.21 -979.53,-468.73 -11.04,-18.84 -16.45,-27.97 -73.44,14.38 -334.4,248.46 -587.22,590.54 -725.24,969.24 -133,364.89 -159.21,763.28 -48.77,1143.57 80.3,276.52 -10.25,544.06 -111.84,844.33zm-413.73 1037.36c-5.44,-31.49 -279.69,-732.17 -313.17,-826.16 -41.19,-115.63 -82.23,-227.45 -91.03,-244.4l-2.57 -5.66c-14.9,-32.59 -28.86,-65.23 -41.95,-97.89 -269.18,343.68 -76.41,1033.35 130.6,1773.38 35.15,125.76 70.78,253.01 97.21,351.71 16.6,61.95 60.07,107.39 115.31,139.17 54.49,31.34 130.99,52.88 198.02,62.45l-5.36 -62.24c-30.74,-356.33 -62.12,-719.78 -87.06,-1090.36zm-541.58 -1459.68c-95.11,-379.04 -80.87,-756.95 9.04,-1122.43 144.24,-586.42 484.21,-1138.89 876.78,-1610.15l2.57 -3.6c273.61,-307.76 576.99,-555.68 917.84,-731.83 342.12,-176.77 720.65,-280.26 1143.16,-298.13 658.78,-27.89 1049.41,132.61 1228.58,362.87 23.81,30.57 43.97,62.3 60.68,94.9 0.15,-4.04 0.45,-8.1 0.92,-12.22l0 -0.5c8.31,-71.04 55.35,-113.57 130.86,-129.62l0.52 0c25.13,-5.3 58.16,-7.91 95.76,-7.69 143.89,0.84 392.4,48.35 513.28,149.92l0.13 -0.17c1090.99,859.77 1318.51,2157.1 1294.29,3172.18l21.85 8.36c808.41,309.48 547.78,1241.37 263.76,2256.81 -29.77,106.42 -59.92,214.2 -96.23,349.74 -36.7,137.03 -126.2,233.72 -238.53,298.35 -84.64,48.68 -201.3,82.26 -299.13,96.99 -12,141.71 -23.35,279.28 -33.28,408.63 -1.73,442.93 -331.96,910.37 -786.29,1290.6 -496.54,415.58 -1148.24,733.83 -1673.29,798.24l-8.5 1.04 -88.23 0 -3.08 -0.52 -42.2 -1.03 -42.18 1.03 -3.07 0.52 -88.2 0 -8.51 -1.04c-525.05,-64.41 -1176.77,-382.66 -1673.32,-798.24 -454.33,-380.23 -784.56,-847.67 -786.29,-1290.6 -9.8,-127.79 -20.99,-263.57 -32.84,-403.45 -114.81,-9.57 -248.26,-42.9 -351.29,-102.17 -112.32,-64.63 -201.82,-161.32 -238.52,-298.35 -36.46,-136.06 -66.48,-243.34 -96.21,-349.66 -251.95,-900.66 -485.35,-1735.58 29.17,-2128.78zm6048.2 1349.21c-25.97,408.87 -60.52,809.15 -94.29,1200.83l-4.51 52.29c44,-10.75 86.31,-26.43 123.45,-47.78 55.24,-31.79 120.7,-81.94 137.3,-143.89 26.61,-99.3 62.08,-226.1 97.24,-351.78 241.73,-864.23 464.11,-1659.78 -46.15,-1915.7 -15.86,228.3 -42.72,436.72 -72.38,615.18 -32.62,196.37 -68.04,354.99 -95.63,464.48 -11.98,47.55 -27.99,90.04 -45.03,126.37z"/>
   <path class="fil1 str0" d="M9391.94 13151.88l0 -7512.92 1740.59 0 0 482.19 -193.89 0c-190.92,0 -318.35,19.04 -381.87,57.72 -65.24,39.74 -113.63,97.86 -146.53,173.17 -33.68,77.1 -50.32,260.52 -50.32,550.59l0 4985.57c0,278.23 7.12,436.32 17.76,478.07 26.34,103.29 73.77,180.92 143.57,229.41 70.79,49.18 210.17,74.01 417.39,74.01l193.89 0 0 482.19 -1740.59 0zm10718.79 -7512.92l0 7512.92 -1740.58 0 0 -482.19 193.89 0c190.93,0 318.04,-19.57 381.86,-56.25 64.93,-37.32 113.08,-93.63 146.53,-171.69 33.13,-77.34 50.32,-259.01 50.32,-544.67l0 -5003.33c0,-275.3 -7.16,-431.85 -17.76,-472.15 -26.38,-100.32 -73.76,-175 -143.57,-224.97 -70.79,-50.66 -210.18,-75.48 -417.38,-75.48l-193.89 0 0 -482.19 1740.58 0z"/>
  </g>
  <path class="fil1 str0" d="M8435.66 15785.09c0,46.47 1.49,94.74 4.45,144.76 3.08,51.94 7.68,106.69 13.77,164.2l6.46 60.9 -61.23 -2.82c-58.17,-2.68 -135.11,-4.69 -230.77,-5.99 -87.01,-1.19 -203.76,-1.79 -350.34,-1.79 -177.1,0 -321.21,0.6 -432.47,1.79 -123.05,1.31 -227,3.32 -311.76,5.99l-54.57 1.72 0 -157.65 50.03 -2.77c29.64,-1.64 55.65,-4.18 77.95,-7.57 20.13,-3.06 35.75,-6.62 46.81,-10.64 7.08,-2.57 12.81,-6.08 17.11,-10.48l0.21 -0.21c4.43,-4.53 8.03,-10.72 10.79,-18.54 3.99,-11.3 7.1,-27.09 9.3,-47.28 2.38,-21.84 3.57,-49.07 3.57,-81.66l0 -1054.88c0,-32.59 -1.2,-59.82 -3.57,-81.66 -2.2,-20.19 -5.31,-35.97 -9.3,-47.28 -2.76,-7.82 -6.37,-14.02 -10.79,-18.54l-0.21 -0.21c-4.3,-4.4 -10.03,-7.91 -17.11,-10.48 -11.06,-4.02 -26.68,-7.58 -46.81,-10.64 -22.31,-3.39 -48.31,-5.92 -77.95,-7.57l-50.03 -2.79 0 -157.64 54.57 1.73c84.76,2.68 188.7,4.68 311.76,5.99 111.25,1.19 255.53,1.79 432.47,1.79 133.09,0 239.32,-0.6 318.38,-1.79 86.39,-1.3 156.07,-3.3 209.04,-5.99l62.42 -3.19 -7.23 61.89c-6.16,52.79 -10.76,102.51 -13.78,149.11 -2.96,45.8 -4.45,90.01 -4.45,132.59 0,35.85 0.6,66.13 1.79,90.76 1.27,26.33 3.13,48.87 5.57,67.58l7.82 59.74 -169.93 0 -4.16 -48.58c-5.91,-69.19 -15.99,-127.44 -30.23,-174.72 -13.18,-43.76 -29.62,-77.3 -49.27,-100.52 -18.39,-21.74 -43.05,-38.23 -73.91,-49.43 -33.63,-12.21 -75.06,-18.33 -124.2,-18.33l-194.46 0c-31.06,0 -56.92,1.09 -77.54,3.24 -19.67,2.05 -34.94,4.91 -45.77,8.51 -12.8,4.27 -21.71,13.45 -26.67,27.49 -3.99,11.3 -7.09,27.09 -9.29,47.29 -2.38,21.83 -3.58,49.07 -3.58,81.65l0 442.55 168.18 0c42.67,0 73.92,-9.63 93.74,-28.86 12.32,-11.96 22.44,-24.12 30.31,-36.44 7.58,-11.86 13.36,-24.25 17.32,-37.13 5.03,-16.36 9.8,-34.65 14.28,-54.83 4.41,-19.89 8.88,-43.32 13.36,-70.21l7.38 -44.24 163.78 0 -5.09 57.47c-2.79,31.58 -4.79,62.28 -5.99,92.09 -1.19,29.39 -1.79,62.95 -1.79,100.49l0 101.22c0,35.44 1.27,76.74 3.79,123.84 2.51,46.98 6.51,103.78 11.98,170.38l4.7 57.05 -165.37 0 -5.81 -46.51c-4.99,-39.98 -12.08,-74.92 -21.23,-104.78 -8.84,-28.83 -19.58,-53.29 -32.19,-73.31 -9.24,-14.67 -22.79,-25.84 -40.62,-33.48 -21.19,-9.07 -48.73,-13.63 -82.55,-13.63l-168.18 0 0 453.21c0,32.58 1.2,59.82 3.58,81.65 2.2,20.2 5.3,35.98 9.29,47.29 4.96,14.04 13.87,23.22 26.67,27.49l0.2 0c10.88,3.63 26.09,6.48 45.57,8.51 20.62,2.15 46.48,3.24 77.54,3.24l194.46 0c41.62,0 77.93,-3.14 108.88,-9.41 29.43,-5.95 54.83,-14.83 76.15,-26.59 40.86,-22.54 72.23,-59.67 94.06,-111.35 11.91,-28.2 22.21,-62.83 30.86,-103.83 8.99,-42.66 16.06,-91.17 21.15,-145.51l4.52 -48.17 168.29 0 -6.54 58.71c-2.61,23.44 -4.54,50.19 -5.78,80.19 -1.19,28.6 -1.79,63.91 -1.79,105.82zm1534.87 -905.87c-10.48,0.59 -21.01,1.52 -31.57,2.77 -10.81,1.27 -19.41,2.57 -25.83,3.86 -6.95,1.39 -13.2,2.99 -18.68,4.73l0 0.2c-5.25,1.66 -9.15,3.12 -11.64,4.35 -1.98,1.1 -3.97,2.38 -5.87,3.87l-0.1 -0.13c-1.35,1.08 -2.65,2.36 -3.84,3.79l0.13 0.1c-1.33,1.62 -2.56,3.5 -3.64,5.59 -1.51,2.91 -2.72,5.79 -3.57,8.57 -1.48,4.84 -2.82,10.4 -3.97,16.64 -1.27,6.82 -2.37,14.66 -3.28,23.46 -0.97,9.33 -1.7,19.37 -2.17,30.04 -0.39,8.81 -0.59,20.89 -0.59,36.25l0 1153.2 -149.97 0 -775.23 -1073.67 0 742.86c0,26.39 1,48.55 2.96,66.43l0 0.21c1.8,16.39 4.36,29.42 7.64,39.03 0.99,2.92 2.04,5.3 3.1,7.12 0.95,1.64 2.22,3.3 3.73,4.93 1.37,1.48 3.12,2.97 5.22,4.43l0 0.21c2.21,1.55 4.92,3.05 8.07,4.45 3.78,1.69 8.74,3.41 14.86,5.13 6.24,1.75 13.82,3.43 22.67,5 10.34,1.84 20.63,3.3 30.75,4.35 11.57,1.21 23.92,2.15 36.99,2.8l63.05 3.15 0 178.31 -71.58 -5.94c-15.16,-1.26 -29.1,-2.23 -41.97,-2.9 -16.75,-0.87 -33.28,-1.55 -49.59,-2.02 -18.47,-0.54 -37.96,-0.95 -58.35,-1.19l-67.76 -0.19 -61.52 0.19c-18.23,0.24 -35.89,0.65 -52.86,1.19 -14.86,0.47 -30.07,1.16 -45.49,2.03 -15.18,0.85 -27.73,1.74 -37.6,2.63l-72.09 6.54 0 -178.26 62.54 -3.54c10.48,-0.59 21.02,-1.52 31.57,-2.77 10.82,-1.27 19.43,-2.57 25.84,-3.86 5.79,-1.16 12.04,-2.82 18.66,-4.92l0.06 0.18c3.9,-1.24 7.86,-2.87 11.77,-4.82 1.97,-0.92 3.88,-2.16 5.7,-3.59l0.1 0.13c1.38,-1.1 2.71,-2.42 3.92,-3.89 0.95,-1.15 2.11,-3.04 3.43,-5.59 1.45,-2.61 2.62,-5.5 3.56,-8.57 1.48,-4.83 2.82,-10.39 3.97,-16.63 1.27,-6.84 2.37,-14.68 3.29,-23.48 0.97,-9.33 1.7,-19.37 2.17,-30.04 0.39,-8.81 0.59,-20.88 0.59,-36.24l0 -844.26c0,-15.24 -0.2,-27.14 -0.59,-35.76 -0.45,-10.14 -1.18,-19.8 -2.17,-28.89 -0.93,-8.55 -1.94,-15.53 -3.01,-20.86l-0.21 0c-1.1,-5.53 -2.2,-9.82 -3.26,-12.83 -0.62,-1.77 -1.37,-3.38 -2.22,-4.79l-1.63 -2.31 -1.78 -1.38 0.06 -0.09c-0.82,-0.48 -2.11,-1.06 -3.86,-1.69 -3.43,-1.24 -7.85,-2.51 -13.24,-3.75 -5.52,-1.28 -12.48,-2.57 -20.84,-3.84 -10.28,-1.56 -19.66,-2.76 -28.11,-3.57 -9.54,-0.92 -20.81,-1.75 -33.77,-2.46l-62.54 -3.5 0 -178.36 72.09 6.6c9.87,0.89 22.42,1.78 37.6,2.63 15.42,0.87 30.63,1.56 45.49,2.03 16.97,0.54 34.63,0.95 52.86,1.19l61.52 0.19 56.45 -0.19c16.99,-0.24 33.97,-0.65 50.82,-1.19 14.65,-0.47 30.07,-1.15 46.26,-2.02 12.24,-0.65 26.49,-1.64 42.54,-2.9l36.87 -2.95 599.86 834.94 0 -512.38c0,-26.69 -1.02,-49.1 -3.03,-67.12 -1.05,-9.41 -2.19,-17.12 -3.38,-23.02 -1.07,-5.31 -2.44,-10.44 -4.12,-15.34 -1.18,-3.25 -2.23,-5.73 -3.18,-7.35 -0.97,-1.66 -2.21,-3.32 -3.69,-4.91 -1.7,-1.82 -3.48,-3.39 -5.26,-4.63 -2.21,-1.54 -4.91,-3.04 -8.05,-4.44 -3.78,-1.69 -8.74,-3.41 -14.86,-5.13 -6.23,-1.75 -13.81,-3.43 -22.67,-5 -10.34,-1.84 -20.63,-3.3 -30.75,-4.35 -11.57,-1.21 -23.92,-2.15 -36.99,-2.8l-63.05 -3.2 0 -178.32 71.58 6c15.16,1.26 29.1,2.23 41.97,2.9 16.75,0.87 33.28,1.55 49.58,2.02 18.43,0.54 37.79,0.94 58.08,1.19l68.03 0.19 61.52 -0.19c18.23,-0.24 35.88,-0.65 52.86,-1.19 14.86,-0.47 30.07,-1.16 45.49,-2.03 15.18,-0.85 27.73,-1.74 37.6,-2.63l72.09 -6.6 0 178.26 -62.54 3.6zm6799.68 748.29l0 240.06c0,26.22 0.93,47.8 2.76,64.65 0.76,7.05 1.86,14.06 3.22,20.9 1.1,5.52 2.2,9.8 3.25,12.79 0.71,2.02 1.43,3.66 2.12,4.84l0.09 -0.05 1.61 2.26 1.79 1.41c1.01,0.63 2.31,1.25 3.83,1.8 3.43,1.25 7.86,2.51 13.21,3.75 5.52,1.28 12.48,2.57 20.87,3.84 10.27,1.56 19.65,2.76 28.1,3.57 9.54,0.92 20.81,1.75 33.77,2.46l62.54 3.44 0 176.62 -70.29 -4.54c-18.32,-1.19 -36.35,-2.16 -54.03,-2.88 -20.57,-0.85 -41.63,-1.54 -63.12,-2.04 -22.91,-0.53 -47.14,-0.94 -72.58,-1.19l-83.9 -0.19 -88.15 0.19c-26.71,0.25 -51.6,0.66 -74.56,1.19 -21.41,0.49 -42.17,1.18 -62.15,2.03 -16.5,0.7 -33.4,1.68 -50.46,2.89l-70.8 5.05 0 -177.13 62.54 -3.44c12.96,-0.71 24.23,-1.54 33.77,-2.46 8.44,-0.81 17.83,-2.01 28.11,-3.57 8.38,-1.27 15.35,-2.56 20.87,-3.84 5.35,-1.24 9.78,-2.5 13.21,-3.75 1.75,-0.63 3.04,-1.21 3.86,-1.69l-0.06 -0.09 1.78 -1.38 1.63 -2.31c0.85,-1.41 1.6,-3.02 2.22,-4.79 1.38,-3.92 2.55,-8.2 3.46,-12.77 1.07,-5.36 2.09,-12.34 3.02,-20.92 0.99,-9.07 1.72,-18.71 2.17,-28.82 0.39,-8.63 0.59,-20.56 0.59,-35.83l0 -866.13c0,-26.21 -0.93,-47.8 -2.76,-64.65 -0.76,-7.05 -1.86,-14.06 -3.22,-20.91l0.2 -0.04c-0.92,-4.56 -2.07,-8.81 -3.46,-12.74 -0.62,-1.77 -1.37,-3.38 -2.22,-4.79l-1.63 -2.31 -1.78 -1.38 0.06 -0.09c-0.82,-0.48 -2.12,-1.06 -3.86,-1.69 -3.43,-1.24 -7.86,-2.51 -13.24,-3.75 -5.52,-1.28 -12.48,-2.57 -20.84,-3.84 -10.28,-1.56 -19.67,-2.76 -28.11,-3.57 -9.54,-0.92 -20.81,-1.75 -33.77,-2.46l-62.54 -3.5 0 -177.12 70.8 5.1c16.97,1.2 33.67,2.19 49.85,2.89 19.47,0.85 39.42,1.54 59.74,2.03 22,0.53 45.46,0.94 70.26,1.19l82.34 0.19 0 0.21 232.86 -2.11 22.57 -0.98 23.75 -0.68 51.09 -0.81c41.36,0 80.74,2.27 118.08,6.77 37.28,4.5 72.7,11.41 106.19,20.7 33.71,9.35 65.21,21.23 94.43,35.58 29.95,14.72 57.01,31.71 81.1,50.94 24.56,19.59 46.21,41.06 64.92,64.33 18.71,23.29 34.46,48.52 47.18,75.64 12.62,26.89 22.05,55.23 28.26,84.95 6.24,29.83 9.37,60.68 9.37,92.5 0,40.43 -4.98,80.18 -14.92,119.09 -4.84,18.98 -11.05,38.12 -18.61,57.37 -7.17,18.3 -15.82,36.91 -25.88,55.77 -10.65,19.95 -22.81,38.6 -36.41,55.87 -13.78,17.48 -29.36,34.17 -46.73,50.01 -16.33,14.91 -34.88,29.4 -55.59,43.44 -19.85,13.47 -41.36,26.16 -64.42,37.99 -23.49,12.05 -48.83,22.61 -75.98,31.62 -27.28,9.05 -55.67,16.45 -85.12,22.15 -29.94,5.8 -61.09,10.12 -93.38,12.92 -32.6,2.82 -66.78,4.24 -102.48,4.24l-80.39 0zm95.7 -748.03c-10.96,0 -20.14,0.24 -27.5,0.71 -7.54,0.48 -14.9,1.27 -22.01,2.33l-0.2 0c-5.78,0.86 -10.98,1.93 -15.54,3.15 -3.75,1.01 -6.88,2.08 -9.32,3.18l-0.2 0c-1.18,0.53 -2.28,1.18 -3.25,1.89 -0.8,0.59 -1.57,1.31 -2.26,2.12 -1.14,1.32 -2.09,2.68 -2.83,4.03 -1.22,2.23 -2.26,4.62 -3.09,7.11 -1.04,3.16 -2.22,7.96 -3.49,14.39 -1.32,6.67 -2.42,13.82 -3.25,21.39 -0.99,8.96 -1.72,18.26 -2.17,27.86 -0.39,8.29 -0.59,19.55 -0.59,33.8l0 450.03 58.52 0c59.36,0 108.6,-6.65 147.67,-19.92 35.11,-11.93 61.72,-29.12 79.79,-51.51 10.14,-12.57 19.09,-26.37 26.78,-41.34 7.65,-14.72 14.16,-31.2 19.57,-49.37 5.6,-18.8 9.77,-38.52 12.48,-59.14 2.71,-20.68 4.08,-43.73 4.08,-69.09 0,-52.85 -5.24,-97.96 -15.7,-135.33 -9.73,-34.76 -23.79,-62.68 -42.13,-83.72 -8.42,-9.66 -18.35,-18.2 -29.7,-25.57 -11.87,-7.69 -25.5,-14.23 -40.81,-19.56 -16.24,-5.65 -34.64,-9.97 -55.15,-12.93 -20.79,-3 -44.04,-4.51 -69.7,-4.51zm1829.06 961.85c0,22.35 0.25,41.31 0.74,56.96 0.56,18.01 1.52,38.25 2.83,60.55 1.1,18.63 2.7,40.3 4.77,64.96 2.16,25.79 4.31,48.67 6.45,68.91l8.04 76.09 -76.51 -3.49c-24.66,-1.12 -52.19,-2.1 -82.44,-2.87 -32.12,-0.83 -67.62,-1.53 -106.34,-2.05 -39.01,-0.53 -82.44,-0.94 -130.2,-1.19l-157.19 -0.19c-101.41,0 -163.96,0.07 -192.07,0.19 -58.96,0.26 -113.27,0.67 -162.84,1.19 -50.06,0.53 -96.67,1.23 -139.7,2.04 -41.5,0.8 -80.09,1.77 -115.75,2.88 -22.43,0 -45.71,1.4 -68.21,2.09l0 -174.17 62.54 -3.44c12.96,-0.71 24.23,-1.54 33.77,-2.46 8.44,-0.81 17.83,-2.01 28.11,-3.57 8.38,-1.27 15.35,-2.56 20.87,-3.84 5.35,-1.24 9.78,-2.5 13.21,-3.75 1.75,-0.63 3.04,-1.21 3.86,-1.69l-0.06 -0.09 1.78 -1.38 1.63 -2.31c0.85,-1.41 1.6,-3.02 2.22,-4.79 1.38,-3.92 2.55,-8.2 3.46,-12.77 1.07,-5.36 2.09,-12.34 3.02,-20.92 0.99,-9.07 1.72,-18.71 2.17,-28.82 0.39,-8.63 0.59,-20.56 0.59,-35.83l0 -866.13c0,-26.21 -0.93,-47.8 -2.76,-64.65 -0.76,-7.05 -1.86,-14.06 -3.22,-20.91l0.2 -0.04c-0.92,-4.56 -2.07,-8.81 -3.46,-12.74 -0.62,-1.77 -1.37,-3.38 -2.22,-4.79l-1.63 -2.31 -1.78 -1.38 0.06 -0.09c-0.82,-0.48 -2.12,-1.06 -3.86,-1.69 -3.43,-1.24 -7.86,-2.51 -13.24,-3.75 -5.52,-1.28 -12.48,-2.57 -20.84,-3.84 -10.28,-1.56 -19.67,-2.76 -28.11,-3.57 -9.54,-0.92 -20.81,-1.75 -33.77,-2.46l-62.54 -3.5 0 -174.23 68.21 2.21c35.61,1.12 74.2,2.09 115.74,2.88 43.02,0.82 89.62,1.51 139.71,2.04 49.57,0.53 103.86,0.93 162.84,1.19l192.07 0.19 142.8 -0.19c43.36,-0.25 82.81,-0.66 118.28,-1.19 34.77,-0.52 66.88,-1.21 96.25,-2.04 27.01,-0.76 51.9,-1.73 74.57,-2.88l77.98 -4 -8.99 77.38c-2.89,24.91 -5.14,45.85 -6.67,62.5 -1.65,17.87 -3.18,37.47 -4.55,58.82 -1.33,20.68 -2.28,39.1 -2.83,55.27 -0.49,14.34 -0.74,31.71 -0.74,52.14l0.19 39.32c0.22,11 0.63,22.42 1.19,34.11 0.38,8.17 1.07,17.97 2,29.25 0.92,11.05 1.73,19.28 2.39,24.4 0,19.49 6.99,54.07 9.67,74.68l-186.07 0 -5.15 -60.72c-2.39,-28.13 -5.62,-53.82 -9.64,-76.99 -3.95,-22.75 -8.73,-43.4 -14.29,-61.87 -5.19,-17.24 -10.98,-32.27 -17.31,-45.03 -5.76,-11.62 -12.02,-21.42 -18.72,-29.34 -6.2,-7.33 -13.33,-13.71 -21.31,-19.08l-0.21 0c-8.83,-5.95 -18.71,-10.92 -29.58,-14.86 -11.92,-4.33 -25.69,-7.68 -41.26,-10.02 -15.91,-2.4 -33.61,-3.61 -53.01,-3.61l-159.67 0c-24.73,0 -44.97,0.81 -60.67,2.41 -14.67,1.5 -25.79,3.5 -33.28,6l-0.2 0c-0.96,0.32 -2,0.81 -3.07,1.44l-1.19 1.11 -0.2 0 -1.19 1.61 -0.09 -0.06c-0.5,0.88 -1.15,2.41 -1.89,4.54 -1.03,2.79 -2.11,7.07 -3.25,12.8l-0.21 0c-1.07,5.33 -2.08,12.32 -3.01,20.89 -0.99,9.07 -1.72,18.7 -2.17,28.82 -0.39,8.63 -0.59,20.56 -0.59,35.83l0 340.67 115.39 0c15.96,0 29.4,-1.8 40.29,-5.39 8.77,-2.89 15.75,-6.85 20.89,-11.84 4.13,-4.01 8.21,-8.44 12.17,-13.23 4.03,-4.86 7.19,-9.09 9.44,-12.61 2.6,-4.06 4.91,-8.26 6.9,-12.53 1.79,-3.85 3.39,-8.02 4.75,-12.46 3.99,-12.95 7.77,-27.47 11.31,-43.46 3.48,-15.67 7.05,-34.45 10.68,-56.28l9.2 -55.3 178.39 0 -6.29 71.84c-1.3,14.86 -2.28,27.23 -2.91,37.03 -0.89,14.16 -1.59,26.8 -2.01,37.55 -0.55,13.81 -0.96,27.02 -1.19,39.47l-0.19 42.12 0 83.11c0,17.64 0.2,32.87 0.6,45.61 0.48,15.5 1.3,33.84 2.42,54.92 0.95,17.69 2.32,39.2 4.08,64.47 1.44,20.59 3.37,45.48 5.77,74.81l5.85 71.31 -180.44 0 -7.24 -58.14c-3.95,-31.65 -9.42,-58.93 -16.39,-81.81 -6.62,-21.74 -14.67,-40.13 -24.1,-55.1 -2.57,-4.09 -5.59,-7.58 -9,-10.42 -3.75,-3.12 -8.46,-5.9 -14.07,-8.3 -6.74,-2.89 -14.78,-5.15 -24.06,-6.74 -10.04,-1.72 -21.67,-2.59 -34.85,-2.59l-115.39 0 0 349.42c0,26.22 0.93,47.8 2.76,64.65 0.76,7.05 1.86,14.06 3.22,20.9 1.1,5.52 2.2,9.8 3.25,12.79 0.79,2.25 1.46,3.83 1.97,4.67l1.15 1.42 1.5 1.03 -0.05 0.09c1.05,0.62 2.09,1.11 3.06,1.43 2.75,0.91 7.03,1.93 12.78,3.03 5.95,1.16 12.65,2.13 20,2.89 8.42,0.88 17.59,1.55 27.45,1.97 7.92,0.34 19.27,0.52 33.92,0.52l159.67 0c17.99,0 33.38,-0.57 46.1,-1.69l0 -0.21c15.09,-1.33 28.08,-3.1 38.87,-5.29 10.96,-2.21 21.42,-5.07 31.3,-8.53 8.75,-3.05 17.02,-6.74 24.74,-11 6.78,-3.74 13.4,-8.25 19.78,-13.47 6.56,-5.36 12.46,-11.12 17.65,-17.2 5.48,-6.41 10.76,-13.82 15.79,-22.16 5.46,-9.05 10.18,-18.24 14.09,-27.51 4.22,-9.99 8.45,-22.05 12.64,-36.1 4.25,-14.26 8.05,-29.27 11.37,-44.99 3.48,-16.53 6.67,-34.69 9.53,-54.41 3.03,-20.99 5.55,-41.87 7.47,-62.49l5.6 -60.21 184.11 0 -8.14 73.39c-0.97,8.78 -1.87,18.71 -2.65,29.77 -0.91,12.77 -1.59,24.28 -2.01,34.48 -0.55,13.35 -0.96,26.74 -1.19,40.03l-0.19 45.96zm-400.68 -1683.35c7.63,-4.76 15.5,-9.11 23.53,-12.99 7.94,-3.83 16.08,-7.14 24.32,-9.89l0.2 0c9.27,-3.09 17.92,-5.34 25.89,-6.71 9.19,-1.58 18.06,-2.38 26.55,-2.38 11.99,0 23.91,1.47 35.7,4.4 11.94,2.97 23.23,7.36 33.81,13.17 10.5,5.88 20.12,12.79 28.77,20.78 8.54,7.89 16.39,16.91 23.53,27.01l2.02 2.94 -0.11 0.07c3.77,5.76 6.87,11.14 9.29,16.12l0 0.21c3.02,6.23 5.59,12.57 7.61,18.99 2.19,6.73 3.81,13.54 4.85,20.32l0 0.21c1.06,6.94 1.61,13.84 1.61,20.67 0,14.71 -2.33,29.27 -6.98,43.6 -4.52,13.72 -11.08,26.82 -19.67,39.25 -7.64,11.05 -17.08,21.66 -28.24,31.78 -10.48,9.5 -22.22,18.34 -35.17,26.49l-2.26 1.33c-9.66,5.91 -19.61,11.47 -29.8,16.66 -11.12,5.66 -24.06,11.77 -38.78,18.3l-0.04 -0.1c-14.37,6.4 -29.49,12.8 -45.29,19.16 -14.45,5.82 -31.84,12.52 -51.93,20.01 -22.56,9.09 -48.47,19.74 -77.95,32.1 -26.62,11.17 -50.85,21.58 -72.49,31.14 -27.04,11.94 -49.27,21.99 -66.63,30.12 -21.54,10.07 -41.61,19.77 -60.16,29.04l0 0.2 -57.22 28.55 -72.54 -134.71 45.21 -34.1c30.34,-22.93 57.49,-44.18 81.42,-63.69 23.96,-19.54 46.77,-39.04 68.38,-58.45l0.21 0c22.96,-20.56 45.88,-41.16 68.94,-61.6l0.2 -0.41 11.2 -9.76c11.81,-11.06 24.59,-22.8 38.5,-35.26 14.59,-13.08 26.75,-23.69 36.42,-31.77 11.53,-9.64 22.85,-18.69 33.89,-27.09l0.21 0c13.09,-9.95 23.52,-17.53 31.19,-22.64l1.81 -1.07zm1156.92 545.46c59.29,0 115.72,3.72 169.22,11.12 53.39,7.39 103.33,18.58 149.76,33.53 47.43,15.26 91.02,34.41 130.7,57.38 40.18,23.25 76.52,50.52 108.97,81.72 64.66,62.19 113.02,138.12 145.05,227.73 31.36,87.77 47.05,188.48 47.05,302.09 0,35.84 -1.91,71.37 -5.71,106.56 -3.75,34.79 -9.39,68.46 -16.88,100.92 -7.48,32.41 -17.01,64.12 -28.54,95.01 -11.6,31.1 -24.95,60.65 -39.99,88.57 -15.53,28.81 -32.71,55.83 -51.48,80.98 -18.7,25.08 -39.52,48.93 -62.39,71.49 -22.13,21.83 -46.34,42.32 -72.61,61.45 -26.62,19.38 -54.08,36.6 -82.35,51.61 -28.58,15.17 -59.12,28.66 -91.56,40.42 -31.44,11.39 -64.58,20.97 -99.38,28.69 -34.47,7.64 -69.94,13.35 -106.33,17.09 -37.39,3.83 -75.15,5.77 -113.21,5.77l-6.11 0 -6.09 -1.45c-5.91,-1.4 -72.9,-1.15 -103.13,-1.04 -23.62,0.08 -47.11,-1.08 -70.73,-1.87l-48.43 -1.37 -38.99 -0.77 -117 0.13c-25.35,0.25 -49.26,0.66 -71.62,1.19 -20.71,0.49 -40.93,1.18 -60.56,2.03 -16.41,0.71 -33.19,1.69 -50.12,2.89l-70.8 5.05 0 -177.13 62.54 -3.44c12.96,-0.71 24.23,-1.54 33.77,-2.46 8.44,-0.81 17.83,-2.01 28.11,-3.57 8.38,-1.27 15.35,-2.56 20.87,-3.84 5.35,-1.24 9.78,-2.5 13.21,-3.75 1.75,-0.63 3.04,-1.21 3.86,-1.69l-0.06 -0.09 1.78 -1.38 1.63 -2.31c0.85,-1.41 1.6,-3.02 2.22,-4.79 1.38,-3.92 2.55,-8.2 3.46,-12.77 1.07,-5.36 2.09,-12.34 3.02,-20.92 0.99,-9.07 1.72,-18.71 2.17,-28.82 0.39,-8.63 0.59,-20.56 0.59,-35.83l0 -866.13c0,-26.21 -0.93,-47.8 -2.76,-64.65 -0.76,-7.05 -1.86,-14.06 -3.22,-20.91l0.2 -0.04c-0.92,-4.56 -2.07,-8.81 -3.46,-12.74 -0.62,-1.77 -1.37,-3.38 -2.22,-4.79l-1.63 -2.31 -1.78 -1.38 0.06 -0.09c-0.82,-0.48 -2.12,-1.06 -3.86,-1.69 -3.43,-1.24 -7.86,-2.51 -13.24,-3.75 -5.52,-1.28 -12.48,-2.57 -20.84,-3.84 -10.28,-1.56 -19.67,-2.76 -28.11,-3.57 -9.54,-0.92 -20.81,-1.75 -33.77,-2.46l-62.54 -3.5 0 -178.17 71.58 6.15c14.78,1.26 28.32,2.25 40.47,2.9 16.13,0.87 31.86,1.55 47.23,2.02 17.6,0.54 36.05,0.95 55.24,1.19l63.79 0.19 0 0.21 184.11 -2.13 68.29 -1.92 56.35 -1.37 76.2 -1.35zm-54.68 171.67c-10.96,0 -20.14,0.24 -27.5,0.71 -7.54,0.48 -14.9,1.27 -22.01,2.33l-0.2 0c-5.79,0.86 -10.99,1.93 -15.55,3.15 -3.75,1 -6.87,2.07 -9.31,3.17 -1.5,0.67 -2.68,1.33 -3.46,1.91 -0.79,0.58 -1.56,1.3 -2.25,2.11l-0.21 0.21c-0.93,1.08 -1.81,2.37 -2.59,3.8 -1.11,2.04 -2.17,4.52 -3.12,7.38 -1.12,3.35 -2.29,8.09 -3.49,14.14 -1.32,6.68 -2.42,13.83 -3.25,21.39 -0.99,8.96 -1.72,18.26 -2.17,27.85 -0.39,8.29 -0.59,19.54 -0.59,33.8l0 874.89c0,24.54 0.93,45.11 2.76,61.66 0.83,7.55 1.93,14.7 3.25,21.37 1.24,6.3 2.39,11.04 3.41,14.18 0.89,2.46 1.95,4.88 3.2,7.16l0 0.2c0.75,1.37 1.7,2.73 2.8,4.01 0.69,0.8 1.46,1.53 2.26,2.12 0.97,0.71 2.07,1.36 3.25,1.89l0.2 0c2.57,1.16 5.68,2.23 9.23,3.17 4.37,1.16 9.77,2.22 16.12,3.15 7.2,1.06 14.77,1.85 22.63,2.33 7.59,0.47 17.19,0.71 28.78,0.71 32.09,0 61.33,-1.32 87.63,-3.93 26.9,-2.68 52.13,-6.7 75.61,-12.03 22.37,-5.07 43.41,-11.5 63.06,-19.25 18.68,-7.37 35.91,-15.98 51.59,-25.78 15.96,-9.98 30.41,-20.82 43.28,-32.49 12.86,-11.66 24.86,-24.77 35.94,-39.26 11.03,-14.44 20.92,-30.04 29.57,-46.72l0 -0.21c9.24,-17.8 16.99,-36.09 23.23,-54.81 13.99,-41.97 24.54,-90.49 31.64,-145.46 7.1,-55.1 10.67,-117.85 10.67,-188.2 0,-100.77 -9.05,-187.3 -27.15,-259.52 -17.35,-69.27 -42.86,-125.11 -76.49,-167.46 -15.89,-20.01 -34.47,-37.45 -55.7,-52.26 -21.61,-15.08 -46.64,-27.88 -75.03,-38.37 -29.38,-10.85 -62.21,-19.06 -98.42,-24.58 -36.95,-5.64 -77.5,-8.46 -121.62,-8.46zm1493.11 4.11c-12.96,0.71 -24.23,1.54 -33.77,2.46 -8.45,0.81 -17.83,2.01 -28.1,3.57 -8.36,1.27 -15.32,2.56 -20.84,3.84 -5.39,1.24 -9.81,2.51 -13.24,3.75 -1.52,0.55 -2.82,1.17 -3.83,1.8l-1.79 1.41c-0.62,0.64 -1.18,1.34 -1.61,2.07l0 0.2c-0.84,1.39 -1.59,3 -2.21,4.78 -1.03,2.79 -2.11,7.07 -3.25,12.8l-0.21 0c-1.07,5.33 -2.08,12.32 -3.01,20.89 -0.99,9.07 -1.72,18.7 -2.17,28.82 -0.39,8.63 -0.59,20.56 -0.59,35.83l0 866.13c0,26.22 0.93,47.8 2.76,64.65 0.76,7.05 1.86,14.06 3.22,20.9 1.1,5.52 2.2,9.8 3.25,12.79 0.71,2.02 1.43,3.66 2.12,4.84l0.09 -0.05 1.61 2.26 1.79 1.41c1.01,0.63 2.31,1.25 3.83,1.8 3.43,1.25 7.86,2.51 13.21,3.75 60.26,13.97 150.42,25.72 200.47,-7.44 15.91,-10.55 30.58,-24.11 43.95,-40.65 15.42,-19.07 30.35,-41.13 44.73,-66.11 14.78,-25.65 29.43,-55.13 43.92,-88.4 0,-11.3 544.31,-1231.65 602.7,-1363.76l111.38 0c61.36,138.62 637.34,1429.38 637.34,1441.02 21.02,48.26 44.2,84.15 69.51,107.63 21.18,19.64 43.99,30.07 68.4,31.22l50.44 2.39 0 160.56 -56.85 -4.25c-36.48,-2.73 -77.19,-4.74 -122.05,-5.99 -42.5,-1.19 -95.51,-1.79 -159.05,-1.79 -81.66,0 -147.91,0.6 -198.76,1.79 -54.14,1.26 -100.33,3.27 -138.49,5.99l-56.64 4.03 0 -160.03 50.23 -2.7c30.68,-1.65 56.95,-4.49 78.76,-8.49 19.93,-3.65 35.69,-8.13 47.2,-13.39 6.19,-2.83 10.42,-5.97 12.64,-9.41 1.97,-3.05 2.97,-7.91 2.97,-14.56 0,-9.24 -2.36,-21.76 -7.05,-37.52 -5.55,-18.67 -14.07,-40.68 -25.49,-65.98l-121.79 -272.46 -579.21 0 -76.42 168.57c-13.89,31.81 -24.25,60.6 -31.08,86.31 -6.29,23.7 -9.45,44.55 -9.45,62.48 0,15.73 2.46,28.97 7.35,39.69 16.89,36.94 118.69,76.57 151,79.72l47.96 4.67 0 159.41 -58.09 -5.8c-229.96,-22.92 -823.11,-21.32 -1104.49,-1.36l-70.8 5.05 0 -177.13 62.54 -3.44c12.96,-0.71 24.23,-1.54 33.77,-2.46 8.44,-0.81 17.83,-2.01 28.11,-3.57 8.38,-1.27 15.35,-2.56 20.87,-3.84 5.35,-1.24 9.78,-2.5 13.21,-3.75 1.75,-0.63 3.04,-1.21 3.86,-1.69l-0.06 -0.09 1.78 -1.38 1.63 -2.31c0.85,-1.41 1.6,-3.02 2.22,-4.79 1.38,-3.92 2.55,-8.2 3.46,-12.77 1.07,-5.36 2.09,-12.34 3.02,-20.92 0.99,-9.07 1.72,-18.71 2.17,-28.82 0.39,-8.63 0.59,-20.56 0.59,-35.83l0 -866.13c0,-26.21 -0.93,-47.8 -2.76,-64.65 -0.76,-7.05 -1.86,-14.06 -3.22,-20.91l0.2 -0.04c-0.92,-4.56 -2.07,-8.81 -3.46,-12.74 -0.62,-1.77 -1.37,-3.38 -2.22,-4.79l-1.63 -2.31 -1.78 -1.38 0.06 -0.09c-0.82,-0.48 -2.12,-1.06 -3.86,-1.69 -3.43,-1.24 -7.86,-2.51 -13.24,-3.75 -5.52,-1.28 -12.48,-2.57 -20.84,-3.84 -10.28,-1.56 -19.67,-2.76 -28.11,-3.57 -9.54,-0.92 -20.81,-1.75 -33.77,-2.46l-62.54 -3.5 0 -177.12 70.8 5.1c17.06,1.21 33.96,2.19 50.46,2.89 19.98,0.85 40.74,1.54 62.15,2.03 22.96,0.53 47.85,0.94 74.56,1.19l88.15 0.19 83.08 -0.19c25.24,-0.25 49.38,-0.66 72.3,-1.19l0.21 0c21.17,-0.49 42.28,-1.18 63.19,-2.03 17.78,-0.72 36.14,-1.7 54.85,-2.89l70.29 -4.5 0 176.52 -62.54 3.5zm-9908.48 -489.63c94.91,0 176.27,16.45 244.03,49.33 32.63,15.83 65.79,35.25 99.39,58.21 32.63,22.28 66.04,48.2 100.23,77.69l0.07 -0.09c9.75,7.98 15.48,11.98 17.12,11.98 5.22,0 -6.69,-2.65 -4.41,-7.92 9.32,-21.51 16.39,-56.25 21.17,-104.16l4.77 -47.75 165.47 0 -3.76 56.43c-3.59,53.99 -6.27,126.36 -7.99,217.09 -1.63,85.89 -2.46,198.85 -2.46,338.81l0 52.92 -157.79 0 -8.27 -43c-17.14,-89.14 -33.95,-154.29 -50.39,-195.4 -8.01,-20.03 -17.95,-40.14 -29.78,-60.24 -12.05,-20.49 -26.37,-41.52 -42.9,-63.01l-0.42 -0.42c-22.5,-29.74 -47.13,-55.9 -73.85,-78.42 -26.73,-22.55 -55.42,-41.49 -86.01,-56.78 -61.53,-30.76 -126.51,-46.16 -194.88,-46.16 -46.71,0 -89.89,6.96 -129.48,20.87 -39.3,13.8 -75.95,34.76 -109.87,62.83 -34.65,28.67 -65.45,63.76 -92.36,105.22 -27.56,42.47 -51.35,92.05 -71.33,148.67 -20.16,57.11 -35.33,119.53 -45.48,187.2 -10.22,68.23 -15.35,142.07 -15.35,221.45 0,160.55 22.23,296.6 66.66,408.12 21.88,54.88 47.64,103.13 77.26,144.68 28.95,40.61 61.42,74.57 97.38,101.83 35.68,27.06 73.63,47.36 113.78,60.87 39.75,13.38 82.24,20.08 127.44,20.08 35.4,0 69.78,-3.85 103.1,-11.54 33.66,-7.77 66.7,-19.45 99.05,-35.03 32.29,-15.54 61.99,-34.49 89.01,-56.78 26.95,-22.22 51.7,-48.24 74.24,-78.02 15.1,-20.67 28.28,-41.89 39.52,-63.59 11.32,-21.83 20.78,-44.33 28.34,-67.42 7.94,-24.24 15.57,-53.7 22.87,-88.34 7.4,-35.12 14.64,-76.51 21.68,-124.08l6.71 -45.27 159.77 0 0 52.92c0,146.59 0.82,264.84 2.45,354.8 1.73,95.34 4.4,171.34 8,227.94l3.58 56.23 -165.4 0 -4.66 -47.96c-2.41,-24.85 -5.54,-47.02 -9.37,-66.42 -3.38,-17.08 -7.02,-30.34 -10.89,-39.7l-1.08 -2.55c-3.51,2.13 -8.11,5.32 -13.8,9.56 -35.55,29.84 -69.96,55.66 -103.19,77.44 -34.53,22.63 -69.3,41.98 -104.26,58 -71.15,32.61 -156.61,48.92 -256.33,48.92 -166.76,0 -313.7,-34.62 -440.78,-103.85 -64.25,-35 -121.3,-78.15 -171.11,-129.38 -49.6,-51.04 -92.1,-110.24 -127.42,-177.56 -35.21,-67.07 -61.52,-140.21 -78.88,-219.34 -17.26,-78.59 -25.89,-163.25 -25.89,-253.91 0,-178.85 35.75,-337.44 107.22,-475.7 35.98,-69.6 79.16,-131.49 129.48,-185.6 50.4,-54.21 107.99,-100.61 172.73,-139.17l0.21 0c64.88,-38.64 133.75,-67.55 206.56,-86.69 73.1,-19.22 149.96,-28.84 230.55,-28.84zm1569.23 196.2c-29.64,1.65 -55.64,4.18 -77.95,7.57 -20.13,3.06 -35.75,6.62 -46.81,10.64 -6.98,2.53 -12.7,6.04 -17.11,10.48 -4.56,4.66 -8.24,10.93 -11,18.75 -3.99,11.3 -7.09,27.09 -9.29,47.29 -2.38,21.83 -3.58,49.07 -3.58,81.65l0 1054.88c0,32.58 1.2,59.82 3.58,81.65 2.2,20.2 5.3,35.98 9.29,47.29 2.76,7.82 6.44,14.09 11,18.75 4.41,4.44 10.13,7.95 17.11,10.48 11.06,4.02 26.68,7.58 46.81,10.64 22.31,3.39 48.3,5.93 77.95,7.57l50.03 2.76 0 159.6 -56.23 -3.66c-41.62,-2.71 -89.56,-4.72 -143.78,-5.99 -50.44,-1.19 -114.18,-1.79 -191.22,-1.79 -81.66,0 -147.91,0.6 -198.75,1.79 -54.15,1.26 -100.35,3.27 -138.5,5.99l-56.64 4.04 0 -159.97 50.03 -2.77c29.64,-1.64 55.65,-4.18 77.95,-7.57 20.13,-3.06 35.75,-6.62 46.81,-10.64 7.08,-2.57 12.81,-6.08 17.11,-10.48l0.21 -0.21c4.43,-4.53 8.03,-10.72 10.79,-18.54 3.99,-11.3 7.1,-27.09 9.3,-47.28 2.38,-21.84 3.57,-49.07 3.57,-81.66l0 -1054.88c0,-32.59 -1.2,-59.82 -3.57,-81.66 -2.2,-20.19 -5.31,-35.97 -9.3,-47.28 -2.76,-7.82 -6.37,-14.02 -10.79,-18.54l-0.21 -0.21c-4.3,-4.4 -10.03,-7.91 -17.11,-10.48 -11.06,-4.02 -26.68,-7.58 -46.81,-10.64 -22.31,-3.39 -48.31,-5.92 -77.95,-7.57l-50.03 -2.79 0 -159.97 56.64 4.06c38.15,2.73 84.33,4.73 138.5,5.99l0.21 0c50.85,1.19 117.1,1.79 198.54,1.79 76.08,0 139.44,-0.6 189.9,-1.79 54.19,-1.27 102.57,-3.27 145.1,-5.99l56.23 -3.6 0 159.51 -50.03 2.79zm1835.75 1432.13c-18.79,26.72 -39.17,50.55 -61.09,71.46 -22.25,21.24 -45.98,39.31 -71.11,54.18 -26.12,15.46 -54.76,27.06 -85.85,34.75 -30.42,7.54 -62.73,11.32 -96.86,11.32 -85.86,0 -156.44,-20.4 -211.69,-61.16 -56.07,-41.37 -94.07,-101.84 -113.95,-181.39l-82.53 -332.99c-11.37,-45.29 -25.16,-82.62 -41.37,-111.93l0.16 -0.09c-14.32,-25.84 -30.36,-44.91 -48.1,-57.17 -18.77,-12.97 -43.1,-22.95 -72.92,-29.9 -32.02,-7.46 -70.11,-11.2 -114.21,-11.2l-98.92 0 0 413.25c0,32.58 1.2,59.82 3.58,81.65 2.2,20.2 5.3,35.98 9.29,47.29 2.76,7.82 6.44,14.09 11,18.75 4.41,4.44 10.13,7.95 17.11,10.48 11.06,4.02 26.68,7.58 46.81,10.64 22.31,3.39 48.3,5.93 77.95,7.57l50.03 2.76 0 159.6 -56.23 -3.66c-41.62,-2.71 -89.56,-4.72 -143.78,-5.99 -50.44,-1.19 -114.18,-1.79 -191.22,-1.79 -81.66,0 -147.91,0.6 -198.75,1.79 -54.15,1.26 -100.35,3.27 -138.5,5.99l-56.64 4.04 0 -159.97 50.03 -2.77c29.64,-1.64 55.65,-4.18 77.95,-7.57 20.13,-3.06 35.75,-6.62 46.81,-10.64 7.08,-2.57 12.81,-6.08 17.11,-10.48l0.21 -0.21c4.43,-4.53 8.03,-10.72 10.79,-18.54 3.99,-11.3 7.1,-27.09 9.3,-47.28 2.38,-21.84 3.57,-49.07 3.57,-81.66l0 -1054.88c0,-32.59 -1.2,-59.82 -3.57,-81.66 -2.2,-20.19 -5.31,-35.97 -9.3,-47.28 -2.76,-7.82 -6.37,-14.02 -10.79,-18.54l-0.21 -0.21c-4.3,-4.4 -10.03,-7.91 -17.11,-10.48 -11.06,-4.02 -26.68,-7.58 -46.81,-10.64 -22.31,-3.39 -48.31,-5.92 -77.95,-7.57l-50.03 -2.79 0 -159.97 56.64 4.06c38.15,2.73 83.06,4.73 134.71,5.99 48.46,1.19 110.72,1.79 186.56,1.79l0 0.21 268.61 -2.63c32.55,-1.94 68.23,-2.91 106.99,-2.91 103.19,0 195.14,9.88 275.78,29.63 82.84,20.28 153.34,50.96 211.45,91.97 59.44,41.95 104.39,90.81 134.79,146.51 30.82,56.47 46.25,118.83 46.25,187.05 0,117.15 -46.32,223.54 -138.96,319.16 -46.47,47.98 -107.04,86.91 -181.68,116.76l-16.14 6.23c37.7,15.32 71.17,34.29 100.34,56.87 64.75,50.13 110.18,128.3 136.22,234.46l58.82 243.03c6.62,29.01 13.51,53.61 20.64,73.78 6.3,17.83 12.56,31.5 18.73,40.92 3.97,6.06 7.85,10.22 11.61,12.44 2.48,1.47 5.64,2.21 9.43,2.21 28.66,0 64.35,-24.21 107.03,-72.58l35.79 -40.56 110.7 102.8 -26.52 37.7zm-980.87 -1431.92c-21.25,0 -39.27,1.28 -54.04,3.83 -12.67,2.19 -22.57,5.14 -29.67,8.81 -4.71,2.44 -8.76,5.94 -12.11,10.47 -4.3,5.82 -7.81,13.59 -10.5,23.27 -3.64,13.14 -6.44,30.02 -8.34,50.63 -1.93,20.94 -2.91,47.34 -2.91,79.16l0 482.51 125.56 0c73,0 133.59,-7.5 181.75,-22.48 44,-13.69 77.13,-33.37 99.35,-59.01 24.04,-27.74 42.18,-61.64 54.39,-101.66 12.76,-41.83 19.16,-91.02 19.16,-147.52 0,-113.1 -27.04,-195.96 -81.1,-248.54 -54.46,-52.97 -148.32,-79.47 -281.54,-79.47zm1867.36 -196.41c171.89,0 323.51,34.49 454.81,103.44 66.33,34.83 125.27,77.91 176.77,129.17 51.48,51.25 95.34,110.44 131.51,177.56 71.75,133.12 107.63,291.09 107.63,473.87 0,89.08 -9.26,173.33 -27.76,252.74 -18.56,79.7 -46.54,154.32 -83.87,223.79 -37.3,69.42 -81.99,131.23 -134.01,185.4 -52.06,54.2 -111.32,100.53 -177.73,138.95 -66.58,38.52 -137.46,67.37 -212.56,86.49 -74.92,19.08 -154.09,28.63 -237.45,28.63 -171.9,0 -323.51,-34.48 -454.82,-103.44 -66.31,-34.83 -125.25,-77.9 -176.77,-129.18 -51.48,-51.24 -95.33,-110.44 -131.5,-177.55 -35.95,-66.7 -62.92,-139.9 -80.88,-219.54 -17.83,-79.09 -26.76,-163.88 -26.76,-254.33 0,-89.08 9.26,-173.33 27.76,-252.73 18.58,-79.71 46.54,-154.32 83.88,-223.8 37.3,-69.42 81.99,-131.24 134.01,-185.39 52.06,-54.21 111.32,-100.53 177.73,-138.96 66.59,-38.52 137.46,-67.37 212.56,-86.49 74.92,-19.08 154.09,-28.63 237.45,-28.63zm-10.66 153.78c-48.09,0 -93.12,7.52 -135.06,22.53l-0.06 -0.18c-41.61,14.92 -80.82,37.61 -117.55,68.01 -37.5,31.04 -70.66,68.12 -99.42,111.17 -29.32,43.88 -54.38,94.28 -75.12,151.12 -21.09,57.79 -36.93,119.73 -47.47,185.75 -10.54,66.02 -15.82,137.08 -15.82,213.17 0,76.06 5.95,147.42 17.82,214.01 11.81,66.26 29.37,127.66 52.63,184.16 23.14,56.2 50.45,105.95 81.91,149.21 30.88,42.46 65.44,78.24 103.59,107.25 75.62,57.51 160.03,86.27 253.2,86.27 48.1,0 93.13,-7.52 135.07,-22.53 41.93,-15.01 81.15,-37.64 117.61,-67.82 37.5,-31.05 70.65,-68.13 99.42,-111.18 29.32,-43.88 54.38,-94.28 75.12,-151.12 21.09,-57.79 36.93,-119.73 47.47,-185.74 10.54,-66.02 15.82,-137.08 15.82,-213.17 0,-76.05 -5.95,-147.4 -17.82,-213.99 -11.81,-66.27 -29.37,-127.69 -52.63,-184.18 -23.14,-56.2 -50.46,-105.96 -81.92,-149.21 -30.89,-42.48 -65.43,-78.24 -103.58,-107.25 -37.87,-28.8 -78,-50.43 -120.32,-64.87 -41.83,-14.27 -86.14,-21.41 -132.89,-21.41zm6654.91 869.13l-219.95 -494.41 -221.91 494.41 441.86 0z"/>
 </g>
</svg>
