<?xml version="1.0" standalone="no"?>
<!DOCTYPE svg PUBLIC "-//W3C//DTD SVG 20010904//EN"
 "http://www.w3.org/TR/2001/REC-SVG-20010904/DTD/svg10.dtd">
<svg version="1.0" xmlns="http://www.w3.org/2000/svg"
 width="700.000000pt" height="700.000000pt" viewBox="0 0 700.000000 700.000000"
 preserveAspectRatio="xMidYMid meet">
<metadata>
Created by potrace 1.14, written by Peter Selinger 2001-2017
</metadata>
<g transform="translate(0.000000,700.000000) scale(0.100000,-0.100000)"
fill="#000000" stroke="none">
<path d="M3260 6278 c-127 -7 -276 -35 -403 -74 -117 -36 -346 -152 -456 -231
-117 -84 -318 -276 -412 -394 -244 -306 -423 -663 -490 -979 -28 -131 -32
-420 -8 -536 l15 -71 -48 -52 c-144 -157 -170 -373 -91 -761 33 -163 177 -691
205 -753 40 -87 140 -156 265 -182 36 -8 67 -15 68 -17 2 -2 11 -82 19 -178
21 -254 63 -368 201 -551 305 -406 935 -769 1360 -784 496 -16 1275 464 1522
940 68 131 83 189 99 384 8 97 17 181 19 188 2 6 21 14 43 18 57 9 153 57 199
98 55 50 73 97 158 407 149 546 181 784 129 984 -35 134 -122 243 -246 306
-67 34 -68 36 -68 75 0 22 -5 117 -10 211 -35 635 -229 1127 -589 1498 -190
195 -271 244 -444 266 -101 13 -153 2 -188 -39 l-26 -31 -14 26 c-7 15 -34 44
-59 66 -147 130 -405 187 -750 166z m270 -168 c189 -18 319 -66 384 -142 138
-161 -31 -413 -344 -513 -157 -51 -424 -46 -563 10 -91 36 -124 64 -182 152
-59 88 -96 123 -129 123 -98 -1 -360 -228 -496 -432 -103 -153 -163 -287 -208
-467 -24 -97 -27 -123 -27 -296 1 -174 3 -200 29 -305 26 -107 27 -120 16
-193 -6 -44 -40 -167 -74 -275 -35 -109 -67 -213 -71 -232 -7 -33 -9 -29 -46
80 -22 63 -59 165 -84 225 -75 185 -89 262 -90 465 0 133 5 196 19 260 61 286
215 593 445 888 366 471 874 704 1421 652z m772 -360 c153 -172 247 -378 303
-654 34 -173 44 -304 55 -711 7 -284 13 -385 29 -480 45 -266 105 -418 251
-635 82 -122 84 -126 82 -180 -6 -142 -94 -1161 -103 -1205 -71 -321 -546
-741 -1049 -928 -111 -42 -274 -77 -353 -77 -236 0 -620 163 -925 392 -161
121 -321 291 -400 424 -64 108 -83 178 -98 344 -48 552 -94 1161 -94 1236 0
110 28 238 103 469 30 94 61 197 68 230 18 90 14 198 -11 295 -31 119 -39 351
-16 472 45 241 159 458 335 641 75 78 168 157 184 157 3 0 24 -26 47 -59 72
-102 172 -164 328 -203 72 -18 116 -22 262 -23 152 0 187 3 265 24 244 63 435
202 523 380 32 65 37 84 40 168 l4 94 57 -53 c31 -29 82 -82 113 -118z m175
91 c184 -154 348 -361 456 -576 174 -349 257 -821 228 -1294 -15 -239 -57
-543 -81 -590 -5 -10 -25 16 -63 80 -66 112 -99 191 -126 302 -44 175 -51 248
-61 592 -11 396 -16 494 -35 630 -48 348 -155 617 -332 838 -29 37 -52 67 -49
67 3 0 31 -22 63 -49z m909 -1988 c138 -117 153 -358 48 -784 -41 -170 -129
-491 -150 -545 -15 -43 -60 -82 -118 -104 l-29 -11 7 73 c4 40 17 210 31 378
13 168 29 319 35 335 24 61 81 365 96 515 9 85 18 161 20 168 4 14 23 6 60
-25z m-3678 -408 l129 -340 27 -335 c14 -184 26 -341 26 -347 0 -31 -106 3
-147 48 -33 37 -188 603 -228 834 -23 136 -24 302 -1 380 20 69 47 118 57 107
4 -4 66 -160 137 -347z"/>
<path d="M240 3500 l0 -2290 530 0 530 0 0 149 0 148 -132 6 c-167 7 -225 24
-271 77 -66 77 -61 -49 -65 1800 -2 1062 1 1728 7 1802 11 133 30 186 82 235
45 42 90 53 247 60 l132 6 0 148 0 149 -530 0 -530 0 0 -2290z"/>
<path d="M5700 5641 l0 -148 133 -6 c166 -7 224 -24 270 -77 65 -77 61 48 65
-1795 3 -1827 2 -1901 -45 -1987 -48 -88 -93 -106 -290 -115 l-133 -6 0 -148
0 -149 530 0 530 0 0 2290 0 2290 -530 0 -530 0 0 -149z"/>
</g>
</svg>
